<svg xmlns="http://www.w3.org/2000/svg" width="251.037" height="192.169" baseProfile="full" viewBox="0 0 370 283"><g stroke-linecap="square" stroke-miterlimit="10"><g fill="none" stroke="#000" stroke-linecap="round" stroke-linejoin="round" stroke-width="1.5" clip-path="url(#clip1)"><path d="M351.43 202.22c0-92.55-75.03-167.571-167.57-167.571-92.55 0-167.573 75.021-167.573 167.571"/></g><g fill="none" stroke="#000" stroke-linecap="round" stroke-linejoin="round" stroke-width="1.5" clip-path="url(#clip2)"><path d="M183.86 34.649V202.22"/></g><g fill="none" stroke="#000" stroke-linecap="round" stroke-linejoin="round" stroke-width="1.5" clip-path="url(#clip3)"><path d="M351.43 202.22 83.314 68.162"/></g><g fill="none" stroke="#000" stroke-linecap="round" stroke-linejoin="round" stroke-width="1.5" clip-path="url(#clip4)"><path d="M16.287 202.22H183.86"/></g><g fill="none" stroke="#000" stroke-linecap="round" stroke-linejoin="round" stroke-width="1.5" clip-path="url(#clip5)"><path d="M316.86 202.22h34.57"/></g><g fill="none" stroke="#000" stroke-linecap="round" stroke-linejoin="round" stroke-width="1.5" clip-path="url(#clip6)"><path d="M183.86 202.22h133"/></g><g fill="none" stroke="#000" stroke-linecap="round" stroke-linejoin="round" stroke-width="1.5" clip-path="url(#clip7)"><path d="M16.287 202.22 221.9 39.024"/></g><g fill="none" stroke="#000" stroke-dasharray="1.5000,3.0000" stroke-linecap="butt" stroke-linejoin="round" stroke-width="1.5" clip-path="url(#clip8)"><path d="M145.81 99.412V202.22"/></g><g fill="none" stroke="#000" stroke-dasharray="1.5000,3.0000" stroke-linecap="butt" stroke-linejoin="round" stroke-width="1.5" clip-path="url(#clip9)"><path d="M221.9 39.024V202.22"/></g><g fill="none" stroke="#000" stroke-linecap="round" stroke-linejoin="round" stroke-width="1.5" clip-path="url(#clip10)"><path d="M131.07 256.23v11.54"/></g><g fill="none" stroke="#000" stroke-linecap="round" stroke-linejoin="round" stroke-width="1.5" clip-path="url(#clip11)"><path d="M236.64 256.23v11.54"/></g><g fill="none" stroke="#000" stroke-linecap="round" stroke-linejoin="round" stroke-width="1.5" clip-path="url(#clip12)"><path d="M131.07 262h105.57"/></g><g fill="none" stroke="#000" stroke-width=".5" clip-path="url(#clip13)"><path d="M184.86 202.22c0 .55-.45 1-1 1-.56 0-1-.45-1-1s.44-1 1-1c.55 0 1 .45 1 1z"/></g><g fill="none" stroke="#000" stroke-width=".5" clip-path="url(#clip14)"><path d="M184.86 34.649c0 .552-.45 1-1 1-.56 0-1-.448-1-1a1.001 1.001 0 0 1 2 0z"/></g><g fill="none" stroke="#000" stroke-width=".5" clip-path="url(#clip15)"><path d="M352.43 202.22c0 .55-.45 1-1 1-.56 0-1-.45-1-1s.44-1 1-1c.55 0 1 .45 1 1z"/></g><g fill="none" stroke="#000" stroke-width=".5" clip-path="url(#clip16)"><path d="M17.287 202.22a1.001 1.001 0 1 1-1-1c.552 0 1 .45 1 1z"/></g><g fill="none" stroke="#000" stroke-width=".5" clip-path="url(#clip17)"><path d="M184.86 118.43c0 .56-.45 1-1 1-.56 0-1-.44-1-1 0-.55.44-1 1-1 .55 0 1 .45 1 1z"/></g><g fill="none" stroke="#000" stroke-width=".5" clip-path="url(#clip18)"><path d="M84.314 68.162a1 1 0 1 1-1.998.002 1 1 0 0 1 1.998-.002z"/></g><g fill="none" stroke="#000" stroke-width=".5" clip-path="url(#clip19)"><path d="M184.86 69.218c0 .552-.45 1-1 1-.56 0-1-.448-1-1s.44-1 1-1c.55 0 1 .448 1 1z"/></g><g fill="none" stroke="#000" stroke-width=".5" clip-path="url(#clip20)"><path d="M146.81 99.412c0 .552-.44.998-1 .998a1 1 0 1 1 1-.998z"/></g><g fill="none" stroke="#000" stroke-width=".5" clip-path="url(#clip21)"><path d="M222.9 39.024c0 .552-.45 1-1 1s-1-.448-1-1 .45-1 1-1 1 .448 1 1z"/></g><g fill="none" stroke="#000" stroke-width=".5" clip-path="url(#clip22)"><path d="M352.43 202.22c0 .55-.45 1-1 1-.56 0-1-.45-1-1s.44-1 1-1c.55 0 1 .45 1 1z"/></g><g fill="none" stroke="#000" stroke-width=".5" clip-path="url(#clip23)"><path d="M17.287 202.22a1.001 1.001 0 1 1-1-1c.552 0 1 .45 1 1z"/></g><g fill="none" stroke="#000" stroke-width=".5" clip-path="url(#clip24)"><path d="M146.81 202.22c0 .55-.44 1-1 1-.55 0-1-.45-1-1s.45-1 1-1c.56 0 1 .45 1 1z"/></g><g fill="none" stroke="#000" stroke-width=".5" clip-path="url(#clip25)"><path d="M222.9 202.22c0 .55-.45 1-1 1s-1-.45-1-1 .45-1 1-1 1 .45 1 1z"/></g><g fill="none" stroke="#000" stroke-width=".5" clip-path="url(#clip26)"><path d="M222.9 137.45c0 .56-.45 1-1 1s-1-.44-1-1c0-.55.45-1 1-1s1 .45 1 1z"/></g><g clip-path="url(#clip27)"><path d="M185.7 217.91q1.44.31 2.16.98 1 .94 1 2.31 0 1.03-.66 1.98-.65.94-1.79 1.38-1.14.44-3.5.44h-6.57v-.38h.54q.87 0 1.24-.56.24-.36.24-1.53v-8.97q0-1.29-.3-1.64-.4-.45-1.18-.45h-.54v-.38h6.02q1.69 0 2.69.25 1.54.36 2.36 1.31.81.94.81 2.16 0 1.05-.64 1.87-.64.82-1.88 1.23zm-5.37-.57q.37.08.87.12.49.04 1.07.04 1.5 0 2.25-.33t1.14-.99q.4-.66.4-1.46 0-1.22-.99-2.08-.99-.86-2.9-.86-1.03 0-1.84.24v5.32zm0 6.66q1.19.27 2.34.27 1.86 0 2.84-.84.97-.84.97-2.05 0-.82-.44-1.57-.45-.75-1.44-1.18-.99-.43-2.46-.43-.64 0-1.09.03-.44.02-.72.07v5.7z"/></g><g clip-path="url(#clip28)"><path d="m8.516 225 6.234-14.22h.344l5.89 14.22H8.516zm10.015-.88-4.156-10.2-4.484 10.2h8.64z"/></g><g clip-path="url(#clip29)"><path d="M349.39 211.86v5.48h3.05q1.2 0 1.59-.36.53-.46.59-1.65h.4v4.84h-.4q-.14-1.01-.28-1.29-.18-.36-.61-.58-.42-.21-1.29-.21h-3.05v4.6q0 .92.08 1.11.08.2.29.32.21.11.77.11h2.36q1.19 0 1.72-.16t1.03-.63q.63-.64 1.3-1.92h.4l-1.2 3.48h-10.7v-.38h.48q.5 0 .94-.23.33-.17.44-.5.12-.33.12-1.34v-9.03q0-1.33-.26-1.63-.38-.42-1.24-.42h-.48v-.38h10.7l.16 3.05h-.39q-.22-1.09-.49-1.51-.26-.41-.76-.61-.43-.16-1.46-.16h-3.81z"/></g><g clip-path="url(#clip30)"><path d="M185.61 24.344h-5.39l-.94 2.187q-.34.813-.34 1.219 0 .312.29.555.3.242 1.32.32V29h-4.38v-.375q.86-.156 1.13-.406.51-.485 1.15-2l4.89-11.438h.36l4.85 11.563q.57 1.39 1.05 1.804.48.414 1.34.477V29h-5.5v-.375q.84-.047 1.13-.281.29-.235.29-.578 0-.454-.41-1.422l-.84-2zm-.28-.766-2.36-5.609-2.42 5.609h4.78z"/></g><g clip-path="url(#clip31)"><path d="m177.53 122.09.06 3.25h-.4q-.05-.98-.42-1.57-.38-.6-.93-.75-.54-.16-1.59-.16h-3.89v10.61q0 1.37.35 1.74.35.37 1.63.41v.38h-5.96v-.38q1.29-.04 1.65-.41.36-.37.36-1.74v-8.85q0-1.37-.36-1.74-.36-.36-1.65-.41v-.38h11.15z"/></g><g fill="gray" clip-path="url(#clip32)"><path d="M138.28 225v-.38q.8-.12 1.22-.51.42-.39.88-1.5l4.85-11.83h.38l5.17 11.89q.52 1.21.9 1.56.38.36 1.34.39v.38h-5.68v-.38q.97-.09 1.25-.33.29-.24.29-.63 0-.49-.47-1.57l-3.53-8.15-3.29 8.04q-.47 1.13-.47 1.64 0 .44.29.69.29.25 1.17.31v.38h-4.3z"/></g><g clip-path="url(#clip33)"><path d="m83.078 49.094-9.14 13.062h5.703q1.312 0 2.015-.57.703-.57 1.25-2.336l.344.062L82.594 63H71.266v-.375l8.922-12.703h-4.454q-1.109 0-1.601.242t-.758.703q-.266.461-.484 1.711H72.5l.297-3.484h10.281z"/></g><g clip-path="url(#clip34)"><path d="m224.28 25.281 5.13 5.11q1.25 1.25 2.14 1.711.9.46 1.79.523V33h-6.62v-.375q.61 0 .87-.203.25-.203.25-.453 0-.235-.09-.43t-.64-.727l-4.8-4.75v4.469q0 1.063.13 1.407.11.25.44.437.43.25.92.25h.48V33h-5.94v-.375h.5q.86 0 1.25-.5.25-.328.25-1.594v-8.969q0-1.062-.14-1.406-.09-.25-.42-.437-.45-.25-.94-.25h-.5v-.375h5.94v.375h-.48q-.47 0-.92.234-.33.172-.45.5t-.12 1.359v4.25q.21-.203 1.41-1.296 3.03-2.797 3.67-3.735.28-.406.28-.719 0-.234-.22-.414-.22-.179-.73-.179h-.31v-.375h5.11v.375q-.46.015-.82.125-.37.109-.9.437t-1.32 1.047q-.23.203-2.09 2.094l-2.11 2.109z"/></g><g clip-path="url(#clip35)"><path d="M171.72 56.781q2.56 0 4.62 1.969 2.05 1.969 2.05 5.219 0 3.234-2.02 5.289-2.03 2.054-4.81 2.054-3.09 0-4.94-2.164-1.84-2.164-1.84-5.148 0-3.25 2.08-5.234 2.08-1.985 4.86-1.985zm-.19.75q-2 0-3.2 1.641-1.21 1.64-1.21 4.781 0 2.938 1.14 4.789 1.13 1.852 3.27 1.852 2.09 0 3.31-1.625 1.21-1.625 1.21-4.719 0-3.141-1.14-4.93-1.13-1.789-3.38-1.789zm-2.42 4.031h.39q0 .891.36 1.266t1.33.375h.83q.92 0 1.28-.375.37-.375.37-1.266h.39v4.954h-.39q0-.875-.36-1.25t-1.31-.375h-.86q-.91 0-1.27.375-.37.375-.37 1.25h-.39v-4.954z"/></g><g clip-path="url(#clip36)"><path d="M140.31 84.547h6.47v-3.985q0-1.062-.14-1.406-.09-.25-.42-.437-.45-.25-.94-.25h-.5v-.375h5.95v.375h-.48q-.5 0-.94.234-.33.172-.44.508-.12.336-.12 1.351v8.969q0 1.063.13 1.407.1.25.42.437.45.25.95.25h.48V92h-5.95v-.375h.5q.84 0 1.24-.5.26-.328.26-1.594v-4.234h-6.47v4.234q0 1.063.14 1.407.1.25.43.437.45.25.93.25h.5V92h-5.95v-.375h.48q.88 0 1.27-.5.23-.328.23-1.594v-8.969q0-1.062-.12-1.406-.11-.25-.42-.437-.46-.25-.96-.25h-.48v-.375h5.95v.375h-.5q-.48 0-.93.234-.32.172-.44.508-.13.336-.13 1.351v3.985z"/></g><g fill="gray" clip-path="url(#clip37)"><path d="m222.59 225-5.37-11.7v9.29q0 1.29.28 1.6.38.43 1.2.43h.49v.38h-4.85v-.38h.5q.88 0 1.25-.53.22-.32.22-1.5v-9.09q0-.92-.2-1.33-.14-.29-.52-.5-.39-.2-1.25-.2v-.38h3.94l5.05 10.88 4.97-10.88h3.93v.38h-.48q-.89 0-1.27.55-.21.32-.21 1.48v9.09q0 1.29.28 1.6.37.43 1.2.43h.48v.38h-5.9v-.38h.48q.89 0 1.25-.53.24-.32.24-1.5v-9.29l-5.36 11.7h-.35z"/></g><g fill="gray" clip-path="url(#clip38)"><path d="M225.72 119.09h3.78l8.5 10.44v-8.03q0-1.28-.3-1.59-.37-.44-1.18-.44h-.49v-.38h4.85v.38h-.5q-.88 0-1.26.55-.21.32-.21 1.48v11.72h-.38l-9.17-11.19v8.56q0 1.29.28 1.6.39.43 1.2.43h.49v.38h-4.83v-.38h.47q.89 0 1.26-.53.24-.32.24-1.5v-9.67q-.61-.7-.92-.93-.32-.22-.93-.43-.29-.09-.9-.09v-.38z"/></g><g clip-path="url(#clip39)"><path d="M179.23 241.09h11.04v3.39h-.39q-.07-.82-.56-1.21-.49-.39-1.55-.39h-6.1q-1.95 0-2.05 1.6h-.39v-3.39zm1.89 4.69h.4q0 .94.45 1.22t1.45.28h2.67q1.02 0 1.46-.28.43-.28.43-1.22h.38v4.61h-.38q0-.83-.37-1.17-.38-.34-1.52-.34h-2.67q-1.2 0-1.55.35-.35.36-.35 1.16h-.4v-4.61zm-2.31 5.31h.38v.25q0 .78.26 1.18.27.4.67.53.41.12 1.32.12h6.75q1.11 0 1.61-.37.51-.38.51-1.46v-.25h.38V255h-11.88v-3.91z"/></g></g></svg>