<?xml version="1.0" encoding="UTF-8"?>

<!DOCTYPE svg PUBLIC '-//W3C//DTD SVG 1.0//EN' 'http://www.w3.org/TR/2001/REC-SVG-20010904/DTD/svg10.dtd'>
<svg fill-opacity="1" xmlns:xlink="http://www.w3.org/1999/xlink" color-rendering="auto" color-interpolation="auto" stroke="black" text-rendering="auto" stroke-linecap="square" width="180" stroke-miterlimit="10" stroke-opacity="1" shape-rendering="auto" fill="black" stroke-dasharray="none" font-weight="normal" stroke-width="1" height="200" xmlns="http://www.w3.org/2000/svg" font-family="&apos;Dialog&apos;" font-style="normal" stroke-linejoin="miter" font-size="12" stroke-dashoffset="0" image-rendering="auto">
  <!--Generated by the Batik Graphics2D SVG Generator-->
  <defs id="genericDefs" />
  <g>
    <g fill="blue" text-rendering="geometricPrecision" stroke-width="1.4" stroke="blue">
      <line y2="182" fill="none" x1="15" x2="115" y1="182" />
    </g>
    <g fill="blue" text-rendering="geometricPrecision" stroke-width="1.4" font-size="15" stroke="blue">
      <line y2="182" fill="none" x1="165" x2="115" y1="132" />
    </g>
    <g fill="blue" text-rendering="geometricPrecision" stroke-width="1.4" font-size="15" stroke="blue">
      <line y2="132" fill="none" x1="165" x2="165" y1="32" />
    </g>
    <g font-size="15" fill-opacity="0" fill="rgb(0,0,0)" text-rendering="geometricPrecision" stroke="rgb(0,0,0)" stroke-width="0.7" stroke-opacity="0">
      <text xml:space="preserve" x="156" y="82" stroke="none">c</text>
    </g>
    <g fill="blue" text-rendering="geometricPrecision" stroke-width="1.4" font-size="15" stroke="blue">
      <line y2="32" fill="none" x1="65" x2="165" y1="32" />
    </g>
    <g fill="red" text-rendering="geometricPrecision" stroke-width="3.0" font-size="15" stroke="red" >
      <line y2="82" fill="none" x1="65" x2="15" y1="32" />
    </g>
    <g fill="blue" text-rendering="geometricPrecision" stroke-width="1.4" font-size="15" stroke="blue">
      <line y2="182" fill="none" x1="15" x2="15" y1="82" />
    </g>
    <g font-size="15" fill-opacity="0.500" fill="rgb(0,0,255)" text-rendering="geometricPrecision" stroke="rgb(0,0,255)" stroke-width="1.4" stroke-opacity="0.500">
      <line y2="182" fill="none" x1="65" x2="15" y1="132" />
    </g>
    <g font-size="15" fill-opacity="0.500" fill="rgb(0,0,255)" text-rendering="geometricPrecision" stroke="rgb(0,0,255)" stroke-width="1.4" stroke-opacity="0.500">
      <line y2="132" fill="none" x1="65" x2="165" y1="132" />
    </g>
    <g font-size="15" fill-opacity="0" fill="rgb(0,0,0)" text-rendering="geometricPrecision" stroke="rgb(0,0,0)" stroke-width="0.7" stroke-opacity="0">
      <text xml:space="preserve" x="106" y="132" stroke="none">h</text>
    </g>
    <g font-size="15" fill-opacity="0.500" fill="rgb(0,0,255)" text-rendering="geometricPrecision" stroke="rgb(0,0,255)" stroke-width="1.4" stroke-opacity="0.500">
      <line y2="132" fill="none" x1="65" x2="65" y1="32" />
    </g>
    <g fill="blue" text-rendering="geometricPrecision" stroke-width="1.4" font-size="15" stroke="blue">
      <line y2="182" fill="none" x1="115" x2="115" y1="82" />
    </g>
    <g fill="blue" text-rendering="geometricPrecision" stroke-width="1.4" font-size="15" stroke="blue">
      <line y2="82" fill="none" x1="15" x2="115" y1="82" />
    </g>
    <g fill="blue" text-rendering="geometricPrecision" stroke-width="1.4" font-size="15" stroke="blue">
      <line y2="82" fill="none" x1="165" x2="115" y1="32" />
    </g>
    <g font-size="15" fill-opacity="0" fill="rgb(0,0,0)" text-rendering="geometricPrecision" stroke="rgb(0,0,0)" stroke-width="0.7" stroke-opacity="0">
      <text xml:space="preserve" x="129" y="57" stroke="none">m</text>
    </g>
    <g fill="rgb(0,128,64)" text-rendering="geometricPrecision" stroke-width="1.4" font-size="15" stroke="rgb(0,128,64)">
      <line y2="132" fill="none" x1="15" x2="165" y1="82" />
    </g>
    <g font-size="18" fill-opacity="0" fill="rgb(0,0,0)" text-rendering="geometricPrecision" stroke="rgb(0,0,0)" stroke-opacity="0">
      <line y2="88" fill="none" x1="85" x2="95" y1="88" />
      <line y2="88" fill="none" x1="93" x2="95" y1="90" />
      <line y2="88" fill="none" x1="93" x2="95" y1="86" />
      <text xml:space="preserve" x="85" y="107" stroke="none">n</text>
      <rect x="83" y="86" fill="none" width="12" height="25" stroke="rgb(200,200,200)" />
    </g>
    <g fill="rgb(0,128,64)" text-rendering="geometricPrecision" stroke-width="1.4" font-size="18" stroke="rgb(0,128,64)">
      <polygon points=" 165 132 157 124 154 134" stroke="none" />
      <line y2="132" fill="none" x1="15" x2="165" y1="82" />
    </g>
    <g font-size="18" fill-opacity="0" fill="rgb(0,0,0)" text-rendering="geometricPrecision" stroke="rgb(0,0,0)" stroke-opacity="0">
      <line y2="88" fill="none" x1="85" x2="95" y1="88" />
      <line y2="88" fill="none" x1="93" x2="95" y1="90" />
      <line y2="88" fill="none" x1="93" x2="95" y1="86" />
      <text xml:space="preserve" x="85" y="107" stroke="none">o</text>
      <rect x="83" y="86" fill="none" width="12" height="25" stroke="rgb(200,200,200)" />
    </g>
    <g fill="rgb(0,128,64)" text-rendering="geometricPrecision" stroke-width="1.4" font-size="18" stroke="rgb(0,128,64)">
      <polygon points=" 15 82 23 90 26 80" stroke="none" />
      <line fill="none" x1="65" x2="165" y1="32" y2="132" stroke-width="3.0" stroke="red" />
    </g>
    <g text-rendering="geometricPrecision" stroke-width="2.1" font-size="18">
      <line y2="185" fill="none" x1="12" x2="18" y1="179" />
      <line y2="185" fill="none" x1="18" x2="12" y1="179" />
      <text xml:space="preserve" x="17" stroke-width="0.7" y="168" stroke="none">A</text>
      <line y2="185" fill="none" x1="112" x2="118" y1="179" />
      <line y2="185" fill="none" x1="118" x2="112" y1="179" />
      <text xml:space="preserve" x="117" stroke-width="0.7" y="168" stroke="none">B</text>
      <circle fill="rgb(0,128,64)" r="4.5" cx="15.5" cy="82.5" stroke="none" />
      <text x="11" y="72" fill="rgb(0,128,64)" stroke="none" stroke-width="0.7" xml:space="preserve">C</text>
      <line y2="85" fill="none" x1="112" x2="118" y1="79" />
      <line y2="85" fill="none" x1="118" x2="112" y1="79" />
      <text xml:space="preserve" x="111" stroke-width="0.7" y="72" stroke="none">D</text>
      <line y2="135" fill="none" x1="62" x2="68" y1="129"  stroke-opacity="0.500" />
      <line y2="135" fill="none" x1="68" x2="62" y1="129" stroke-opacity="0.500" />
      <text xml:space="preserve" x="67" fill-opacity="0.500" stroke-width="0.7" y="122" stroke="none">E</text>
      <circle fill="rgb(0,128,64)" r="4.5" cx="165.5" cy="132.5" stroke="none" />
      <text x="167" y="122" fill="rgb(0,128,64)" stroke="none" stroke-width="0.7" xml:space="preserve">F</text>
      <line y2="35" fill="none" x1="62" x2="68" y1="29" />
      <line y2="35" fill="none" x1="68" x2="62" y1="29" />
      <text xml:space="preserve" x="65" stroke-width="0.7" y="22" stroke="none">H</text>
      <line y2="35" fill="none" x1="162" x2="168" y1="29" />
      <line y2="35" fill="none" x1="168" x2="162" y1="29" />
      <text xml:space="preserve" x="165" stroke-width="0.7" y="22" stroke="none">G</text>
    </g>
  </g>
</svg>