<?xml version="1.0" encoding="UTF-8" standalone="no"?>
<svg xmlns="http://www.w3.org/2000/svg" xml:space="preserve" fill-rule="evenodd" stroke-linecap="round" stroke-linejoin="round" stroke-miterlimit="1.41421" clip-rule="evenodd" viewBox="0 0 83 83">
  <g transform="translate(-115.981 -17.1848) scale(.4656)">
    <path fill="#fff" fill-rule="nonzero" stroke="#000" stroke-width="5.96" d="M287.76 46.679c-5.636 0-10.188 4.52-10.188 10.156v138.06c0 5.636 4.552 10.188 10.188 10.188h100.28c5.636 0 10.156-4.552 10.156-10.188V59.361s.879-12.438-10.807-12.685c-1.717-.036-99.637 0-99.637 0l.008.003Z"/>
    <path fill="#d9d9d9" fill-rule="nonzero" stroke="#000" stroke-linecap="butt" stroke-width="7.02" d="M252 114.62c0 7.054-4.509 13.379-10.688 13.379h-121.62c-6.18 0-11.69-6.32-11.69-13.38V68.026c0-7.053 5.51-12.027 11.69-12.027h121.62c6.18 0 10.69 4.974 10.69 12.027v46.593l-.002.001Z" transform="matrix(.60971 0 0 .61699 228.135 22.4163)"/>
    <path fill-rule="nonzero" d="M319.87377715 90.59452314h-14.18636548v-6.4046118l14.18636548-16.86096745h6.78648302v17.22329408h3.51652277v6.04228517h-3.51652277v5.23795012h-6.78648302v-5.23795012Zm0-6.04228517v-8.81160323l-7.49459855 8.81160323h7.49459855Zm16.46406193-17.02333789-4.29078922-.76825273c.35631291-1.3681213 1.04187699-2.41601201 2.05669224-3.14367213 1.01331182-.72766012 2.44908747-1.09149018 4.30732695-1.09149018 2.13186374 0 3.67438292.39690552 4.62455068 1.19221999.95167119.79531447 1.42675507 1.79359199 1.42675507 2.99783942 0 .70510867-.19243904 1.34406642-.57882055 1.91687325s-.96971235 1.07344902-1.74999252 1.50493343c.6314406.15635672 1.11404163.33827175 1.44930652.54574509.5412348.33376146.96369863.77426645 1.26438463 1.32001154.300686.54724852.451029 1.19823371.451029 1.95746586 0 .95016776-.24806595 1.86274977-.74570128 2.73473917-.49913876.87349283-1.21627487 1.54552604-2.15140833 2.01760306-.93663689.47207702-2.16644263.70811553-3.68941722.70811553-1.48538884 0-2.65806424-.17439788-3.51652277-.52319364-.85845853-.35029919-1.5635672-.85996196-2.11682944-1.5334986-.55476567-.67203321-.98023636-1.51696087-1.27641207-2.53478298l4.53584831-.60287543c.17890817.91408544.45553929 1.5485329.82989336 1.90033552.3758575.35330605.85244481.53071079 1.43276879.53071079.60888915 0 1.11554506-.22401107 1.52147116-.66902635.40442267-.44651871.60738572-1.04037356.60738572-1.78306798 0-.75772872-.1954459-1.34556985-.58483427-1.76201996-.3908918-.41494668-.92009916-.62392345-1.58912551-.62392345-.35631291 0-.84643109.08870237-1.47035454.26761054l.23303165-3.24289851c.25257624.03758575.44952557.05562691.59084799.05562691.59535828 0 1.08998675-.18943218 1.4883957-.56829654.39690552-.37886436.59535828-.82838993.59535828-1.34857671 0-.49763533-.14733614-.89604428-.44501528-1.19221999-.29767914-.29767914-.7066121-.44651871-1.22529545-.44651871-.53522108 0-.96971235.16237044-1.30497724.48560789-.33376146.32323745-.56077939.88852713-.67955036 1.6988759Zm12.29505054 6.49030731h20.87512555v6.21367619h-20.87512555v-6.21367619Zm0 9.40545808h20.87512555v6.1941316h-20.87512555v-6.1941316Z"/>
    <g transform="matrix(.51943 0 0 .42543 255.513 52.7571)">
      <g transform="translate(-24.2287 -4.37733)">
        <path fill="#e6e6e6" fill-rule="nonzero" d="M142 222.22c0 4.241-3.662 7.78-8.203 7.78h-16.675c-4.541 0-9.123-3.539-9.123-7.78v-13.44c0-4.241 4.582-7.78 9.123-7.78h16.675c4.541 0 8.203 3.539 8.203 7.78v13.44Z"/>
        <path fill="#666" d="m134.114 194.562.316.011.315.019.313.027.311.034.309.042.308.049.305.056.304.063.302.071.299.078.297.084.295.092.292.099.29.106.287.112.285.119.282.127.279.133.277.139.273.147.271.153.268.16.264.166.262.174.258.179.254.187.252.193.247.201.244.206.241.214.236.22.233.227.228.234.225.241.219.248.216.255.21.261.206.269.201.276.196.282.19.29.185.297.179.304.173.311.166.318.16.325.153.332.147.338.138.346.131.351.123.359.115.364.106.371.097.376.088.381.079.387.068.391.059.396.049.399.038.404.027.406.016.408.005.357v13.546l-.005.357-.016.408-.027.406-.038.403-.049.4-.059.396-.068.391-.079.387-.088.381-.097.376-.106.371-.115.364-.123.358-.131.352-.139.346-.146.338-.153.332-.16.325-.166.318-.173.311-.179.304-.185.297-.19.29-.196.282-.201.276-.206.269-.21.261-.215.255-.22.248-.225.241-.228.234-.233.227-.236.22-.241.214-.244.206-.247.201-.252.193-.254.186-.258.181-.262.173-.264.166-.268.16-.271.153-.273.147-.277.139-.279.133-.282.127-.285.119-.287.112-.29.106-.292.099-.295.092-.297.084-.299.078-.302.071-.303.063-.306.056-.308.049-.309.042-.311.034-.313.027-.315.019-.316.011-.291.004h-16.727l-.291-.004-.316-.011-.315-.019-.313-.026-.311-.033-.31-.041-.309-.047-.306-.054-.305-.06-.303-.068-.301-.073-.299-.081-.297-.086-.295-.093-.293-.099-.292-.105-.289-.111-.286-.117-.285-.123-.282-.129-.28-.136-.278-.141-.276-.147-.273-.153-.27-.16-.268-.165-.266-.172-.262-.177-.261-.184-.257-.191-.254-.196-.252-.204-.249-.21-.245-.216-.243-.224-.239-.231-.235-.237-.232-.246-.228-.252-.225-.261-.22-.269-.216-.277-.212-.285-.206-.294-.202-.303-.196-.312-.191-.321-.184-.331-.177-.34-.171-.35-.163-.361-.155-.37-.146-.38-.136-.39-.127-.399-.116-.41-.105-.418-.092-.426-.08-.435-.067-.443-.052-.448-.038-.455-.024-.459-.006-.397v-13.572l.006-.397.024-.459.038-.455.052-.448.067-.443.08-.435.092-.426.105-.418.116-.41.127-.399.136-.39.146-.38.155-.37.163-.36.171-.351.177-.34.184-.331.191-.321.196-.312.202-.303.206-.294.212-.285.216-.277.22-.269.225-.26.228-.253.232-.246.236-.238.239-.23.242-.224.245-.216.249-.21.252-.204.254-.196.257-.191.261-.184.262-.177.266-.172.268-.165.27-.16.273-.153.276-.147.278-.141.28-.136.282-.129.285-.123.287-.117.289-.111.29-.105.294-.099.295-.093.297-.086.299-.081.301-.073.303-.068.305-.06.306-.054.309-.047.31-.041.311-.033.313-.026.315-.019.316-.011.291-.004h16.727l.291.004ZM117.122 201l-.213.003-.213.007-.212.013-.213.018-.212.022-.211.028-.211.032-.211.037-.209.042-.209.046-.208.051-.206.056-.206.059-.204.064-.202.069-.201.072-.2.077-.197.081-.196.084-.194.089-.192.093-.19.096-.187.101-.185.103-.183.108-.18.111-.177.115-.174.118-.172.121-.169.125-.165.128-.162.131-.159.134-.156.137-.152.14-.148.143-.145.146-.14.149-.137.152-.133.154-.128.156-.124.16-.12.161-.116.164-.11.167-.107.168-.101.171-.096.173-.091.175-.087.177-.081.179-.075.181-.07.183-.065.184-.059.186-.053.188-.048.189-.041.191-.035.192-.029.194-.023.195-.017.196-.01.197-.003.198v13.44l.003.198.01.197.017.196.023.195.029.194.035.192.041.191.048.189.053.188.059.186.065.184.07.183.075.181.081.179.087.177.091.175.096.173.101.171.107.168.11.167.116.164.12.161.124.16.128.156.133.154.137.152.14.149.145.146.148.143.152.14.156.137.159.134.162.131.165.128.169.125.172.121.174.118.177.115.18.111.183.108.185.103.187.101.19.096.192.093.194.089.196.084.197.081.2.077.201.072.202.069.204.064.206.059.206.056.208.051.209.046.209.042.211.037.211.032.211.028.212.022.213.018.212.013.213.007.213.003h16.675l.212-.003.211-.007.209-.013.208-.018.207-.022.205-.028.203-.032.201-.037.2-.042.198-.046.195-.051.194-.056.192-.059.19-.064.187-.069.185-.072.183-.077.181-.081.178-.084.176-.089.173-.093.17-.096.168-.101.165-.103.162-.108.16-.111.156-.115.153-.118.151-.121.147-.125.144-.128.14-.131.138-.134.134-.137.13-.14.127-.143.124-.146.119-.149.117-.152.112-.154.108-.156.105-.16.1-.161.097-.164.093-.167.088-.168.084-.171.08-.173.075-.175.071-.177.067-.179.062-.181.058-.183.052-.184.048-.186.044-.188.038-.189.034-.191.028-.192.024-.194.018-.195.013-.196.008-.197.003-.198v-13.44l-.003-.198-.008-.197-.013-.196-.018-.195-.024-.194-.028-.192-.034-.191-.038-.189-.044-.188-.048-.186-.052-.184-.058-.183-.062-.181-.067-.179-.071-.177-.075-.175-.08-.173-.084-.171-.088-.168-.093-.167-.097-.164-.1-.161-.105-.16-.108-.156-.112-.154-.117-.152-.119-.149-.124-.146-.127-.143-.13-.14-.134-.137-.138-.134-.14-.131-.144-.128-.147-.125-.151-.121-.153-.118-.156-.115-.16-.111-.162-.108-.165-.103-.168-.101-.17-.096-.173-.093-.176-.089-.178-.084-.181-.081-.183-.077-.185-.072-.187-.069-.19-.064-.192-.059-.194-.056-.195-.051-.198-.046-.2-.042-.201-.037-.203-.032-.205-.028-.207-.022-.208-.018-.209-.013-.211-.007-.212-.003h-16.675Z"/>
      </g>
      <g transform="translate(-3.41811 -4.37733)">
        <path fill="#e6e6e6" fill-rule="nonzero" d="M179 222.22c0 4.241-3.784 7.78-8.325 7.78h-16.68c-4.541 0-9-3.539-9-7.78v-13.44c0-4.241 4.459-7.78 9-7.78h16.675c4.541 0 8.325 3.539 8.325 7.78v13.44H179Z"/>
        <path fill="#666" d="m170.987 194.562.316.011.315.019.313.027.311.034.309.041.308.049.306.056.303.063.302.07.299.077.298.084.294.091.293.098.29.105.288.111.285.118.283.125.28.132.277.138.274.144.271.152.269.158.266.164.262.171.259.178.256.184.253.191.25.198.246.205.242.211.238.217.235.225.231.231.227.239.222.245.218.252.214.26.209.267.204.273.2.281.194.288.188.296.183.302.177.311.17.317.165.325.157.332.15.339.143.346.136.354.127.36.119.367.11.373.101.38.091.385.082.391.072.397.062.401.05.405.04.409.029.413.017.415.005.362v13.238l.002.047.002.32-.004.307-.017.415-.029.413-.04.409-.05.405-.062.401-.072.396-.082.392-.091.385-.101.38-.11.373-.119.367-.127.36-.136.354-.143.346-.15.339-.157.332-.165.325-.17.317-.177.31-.183.303-.188.296-.194.288-.2.281-.204.274-.209.266-.214.259-.218.253-.223.245-.226.238-.231.232-.235.225-.238.218-.243.211-.245.204-.25.197-.253.191-.256.185-.259.178-.262.171-.266.164-.269.158-.271.151-.274.145-.277.138-.28.132-.283.125-.285.118-.288.111-.29.105-.293.098-.295.091-.297.084-.299.077-.302.07-.303.063-.306.056-.308.049-.309.041-.311.034-.313.027-.315.019-.316.011-.291.004h-16.732l-.291-.004-.316-.011-.315-.019-.313-.026-.311-.034-.31-.04-.308-.047-.307-.055-.304-.061-.303-.067-.3-.075-.299-.08-.297-.087-.295-.094-.292-.099-.291-.106-.288-.112-.286-.119-.284-.124-.281-.13-.279-.137-.277-.143-.274-.148-.272-.155-.269-.161-.267-.167-.264-.174-.261-.179-.258-.186-.256-.192-.253-.199-.249-.205-.247-.212-.243-.219-.24-.226-.237-.233-.233-.24-.229-.247-.226-.255-.221-.262-.217-.271-.213-.279-.208-.287-.203-.295-.198-.304-.193-.313-.186-.322-.181-.332-.173-.34-.167-.35-.158-.359-.151-.369-.142-.379-.132-.387-.123-.397-.112-.406-.101-.414-.089-.422-.077-.43-.064-.437-.051-.443-.037-.448-.022-.453-.006-.39v-13.57l.006-.39.022-.453.037-.448.051-.443.064-.437.077-.43.089-.422.101-.414.112-.406.123-.397.132-.387.142-.379.151-.369.158-.359.167-.35.173-.34.18-.332.187-.322.193-.313.197-.304.204-.295.208-.287.213-.279.217-.271.221-.262.226-.255.229-.248.233-.239.237-.233.24-.226.243-.219.247-.212.249-.205.253-.199.256-.192.258-.186.261-.18.264-.173.267-.167.269-.161.272-.155.274-.148.277-.143.279-.136.281-.131.284-.124.286-.119.288-.112.291-.106.292-.099.295-.094.297-.087.299-.08.3-.075.303-.067.304-.061.307-.055.308-.047.31-.04.311-.034.313-.026.315-.019.316-.011.291-.004h16.727l.291.004ZM153.995 201l-.213.003-.212.007-.213.013-.211.018-.212.022-.21.028-.21.032-.209.037-.209.042-.207.046-.206.051-.205.056-.203.059-.202.064-.201.069-.199.072-.197.077-.196.081-.193.084-.192.089-.189.093-.187.096-.185.101-.182.103-.18.108-.177.111-.175.115-.171.118-.169.121-.166.125-.163.128-.159.131-.156.134-.153.137-.149.14-.145.143-.142.146-.138.149-.134.152-.13.154-.126.156-.121.16-.117.161-.113.164-.109.167-.103.168-.099.171-.094.173-.09.175-.084.177-.079.179-.074.181-.068.183-.063.184-.058.186-.052.188-.046.189-.04.191-.034.192-.029.194-.022.195-.016.196-.01.197-.003.198v13.44l.003.198.01.197.016.196.022.195.029.194.034.192.04.191.046.189.052.188.058.186.063.184.068.183.074.181.079.179.084.177.09.175.094.173.099.171.103.168.109.167.113.164.117.161.121.16.126.156.13.154.134.152.138.149.142.146.145.143.149.14.153.137.156.134.159.131.163.128.166.125.169.121.171.118.175.115.177.111.18.108.182.103.185.101.187.096.189.093.192.089.193.084.196.081.197.077.199.072.201.069.202.064.203.059.205.056.206.051.207.046.209.042.209.037.21.032.21.028.212.022.211.018.213.013.212.007.213.003h16.68l.212-.003.211-.007.21-.013.209-.018.207-.022.206-.028.204-.032.202-.037.201-.042.2-.046.197-.051.196-.056.193-.059.192-.064.189-.069.188-.072.185-.077.182-.081.181-.084.178-.089.176-.093.173-.096.17-.101.168-.103.165-.108.162-.111.159-.115.156-.118.153-.121.15-.125.147-.128.143-.131.141-.134.136-.137.134-.14.13-.143.126-.146.122-.149.119-.152.115-.154.111-.156.108-.16.103-.161.099-.164.095-.167.09-.168.087-.171.082-.173.077-.175.073-.177.069-.179.064-.181.059-.183.054-.184.05-.186.045-.188.039-.189.035-.191.029-.192.024-.194.019-.195.014-.196.008-.197.003-.198h-.005v-13.44l-.003-.198-.008-.197-.014-.196-.019-.195-.024-.194-.029-.192-.035-.191-.039-.189-.045-.188-.05-.186-.054-.184-.059-.183-.064-.181-.069-.179-.073-.177-.077-.175-.082-.173-.087-.171-.09-.168-.095-.167-.099-.164-.103-.161-.108-.16-.111-.156-.115-.154-.119-.152-.122-.149-.126-.146-.13-.143-.134-.14-.136-.137-.141-.134-.143-.131-.147-.128-.15-.125-.153-.121-.156-.118-.159-.115-.162-.111-.165-.108-.168-.103-.17-.101-.173-.096-.176-.093-.178-.089-.181-.084-.182-.081-.185-.077-.188-.072-.189-.069-.192-.064-.193-.059-.196-.056-.197-.051-.2-.046-.201-.042-.202-.037-.204-.032-.206-.028-.207-.022-.209-.018-.21-.013-.211-.007-.212-.003h-16.675Z"/>
      </g>
      <g transform="translate(17.3925 -4.37733)">
        <path fill="#e6e6e6" fill-rule="nonzero" d="M216 222.22c0 4.241-3.784 7.78-8.325 7.78h-16.68c-4.541 0-9-3.539-9-7.78v-13.44c0-4.241 4.459-7.78 9-7.78h16.675c4.541 0 8.325 3.539 8.325 7.78v13.44H216Z"/>
        <path fill="#666" d="m207.987 194.562.316.011.315.019.313.027.311.034.309.041.308.049.306.056.303.063.302.07.299.077.298.084.294.091.293.098.29.105.288.111.285.118.283.125.28.132.277.138.274.145.271.151.269.158.266.164.262.171.259.178.257.185.252.19.249.198.247.205.242.21.238.218.235.225.231.231.227.239.222.245.218.252.214.26.209.267.204.273.199.281.194.288.189.296.183.303.177.31.17.317.165.325.157.332.15.339.143.346.136.354.127.36.119.367.11.373.101.38.091.385.082.392.072.396.062.401.05.405.04.409.029.413.017.415.005.362v13.238l.002.047.002.32-.004.307-.017.415-.029.412-.04.41-.05.405-.062.401-.072.396-.081.391-.092.386-.101.38-.11.373-.119.367-.127.36-.136.354-.142.346-.151.339-.158.333-.164.324-.17.317-.177.311-.183.302-.189.296-.193.288-.2.281-.204.274-.209.266-.214.259-.218.253-.222.245-.227.238-.231.232-.235.225-.238.218-.243.21-.246.205-.249.198-.252.19-.257.185-.259.178-.262.171-.266.164-.269.158-.271.151-.274.145-.277.138-.28.132-.283.125-.285.118-.288.111-.29.105-.293.098-.295.091-.297.084-.299.077-.302.07-.303.063-.306.056-.308.049-.309.041-.311.034-.313.027-.315.019-.316.011-.291.004h-16.732l-.291-.004-.316-.011-.315-.019-.313-.026-.311-.034-.31-.04-.308-.047-.307-.055-.304-.061-.303-.067-.301-.075-.298-.08-.297-.087-.295-.094-.292-.099-.291-.106-.288-.112-.286-.119-.284-.124-.281-.13-.279-.137-.277-.143-.274-.148-.272-.155-.269-.161-.267-.167-.264-.174-.261-.179-.258-.186-.256-.192-.253-.199-.249-.205-.247-.212-.243-.219-.24-.226-.237-.233-.233-.24-.229-.247-.226-.255-.221-.262-.217-.271-.213-.279-.208-.287-.203-.295-.198-.304-.193-.313-.186-.322-.181-.332-.173-.34-.167-.35-.158-.359-.151-.369-.142-.379-.132-.387-.123-.397-.112-.406-.101-.414-.089-.422-.077-.43-.064-.437-.051-.443-.037-.448-.022-.453-.006-.391v-13.568l.006-.391.022-.453.037-.448.051-.443.064-.437.077-.43.089-.422.101-.414.112-.406.123-.397.132-.387.142-.379.151-.369.158-.359.167-.35.173-.34.181-.332.186-.322.193-.313.197-.304.204-.295.208-.287.213-.279.217-.271.221-.262.226-.255.229-.248.233-.239.237-.233.24-.226.243-.219.247-.212.249-.205.253-.199.256-.192.258-.186.261-.179.264-.174.267-.167.269-.161.272-.155.274-.148.277-.143.279-.136.281-.131.284-.124.286-.119.288-.112.291-.106.292-.099.295-.094.297-.087.299-.08.3-.075.303-.067.304-.061.307-.055.308-.047.31-.04.311-.034.313-.026.315-.019.316-.011.291-.004h16.727l.291.004ZM190.995 201l-.213.003-.212.007-.213.013-.211.018-.212.022-.21.028-.21.032-.209.037-.209.042-.207.046-.206.051-.205.056-.203.059-.202.064-.201.069-.199.072-.197.077-.196.081-.193.084-.192.089-.189.093-.187.096-.185.101-.182.103-.18.108-.177.111-.175.115-.171.118-.169.121-.166.125-.163.128-.159.131-.156.134-.153.137-.149.14-.145.143-.142.146-.138.149-.134.152-.13.154-.126.156-.121.16-.117.161-.113.164-.109.167-.103.168-.099.171-.094.173-.09.175-.084.177-.079.179-.074.181-.068.183-.063.184-.058.186-.052.188-.046.189-.04.191-.034.192-.029.194-.022.195-.016.196-.01.197-.003.198v13.44l.003.198.01.197.016.196.022.195.029.194.034.192.04.191.046.189.052.188.058.186.063.184.068.183.074.181.079.179.084.177.09.175.094.173.099.171.103.168.109.167.113.164.117.161.121.16.126.156.13.154.134.152.138.149.142.146.145.143.149.14.153.137.156.134.159.131.163.128.166.125.169.121.171.118.175.115.177.111.18.108.182.103.185.101.187.096.189.093.192.089.193.084.196.081.197.077.199.072.201.069.202.064.203.059.205.056.206.051.207.046.209.042.209.037.21.032.21.028.212.022.211.018.213.013.212.007.213.003h16.68l.212-.003.211-.007.21-.013.209-.018.207-.022.206-.028.204-.032.202-.037.201-.042.2-.046.197-.051.196-.056.193-.059.192-.064.189-.069.188-.072.185-.077.182-.081.181-.084.178-.089.176-.093.173-.096.17-.101.168-.103.165-.108.162-.111.159-.115.156-.118.153-.121.15-.125.147-.128.143-.131.141-.134.136-.137.134-.14.13-.143.126-.146.122-.149.119-.152.115-.154.111-.156.108-.16.103-.161.099-.164.095-.167.09-.168.087-.171.082-.173.077-.175.073-.177.069-.179.064-.181.059-.183.054-.184.05-.186.045-.188.039-.189.035-.191.029-.192.024-.194.019-.195.014-.196.008-.197.003-.198h-.005v-13.44l-.003-.198-.008-.197-.014-.196-.019-.195-.024-.194-.029-.192-.035-.191-.039-.189-.045-.188-.05-.186-.054-.184-.059-.183-.064-.181-.069-.179-.073-.177-.077-.175-.082-.173-.087-.171-.09-.168-.095-.167-.099-.164-.103-.161-.108-.16-.111-.156-.115-.154-.119-.152-.122-.149-.126-.146-.13-.143-.134-.14-.136-.137-.141-.134-.143-.131-.147-.128-.15-.125-.153-.121-.156-.118-.159-.115-.162-.111-.165-.108-.168-.103-.17-.101-.173-.096-.176-.093-.178-.089-.181-.084-.182-.081-.185-.077-.188-.072-.189-.069-.192-.064-.193-.059-.196-.056-.197-.051-.2-.046-.201-.042-.202-.037-.204-.032-.206-.028-.207-.022-.209-.018-.21-.013-.211-.007-.212-.003h-16.675Z"/>
      </g>
      <g transform="translate(-24.2287 15.4125)">
        <path fill="#e6e6e6" fill-rule="nonzero" d="M142 254.22c0 4.241-3.662 7.78-8.203 7.78h-16.675c-4.541 0-9.123-3.539-9.123-7.78v-13.44c0-4.241 4.582-7.78 9.123-7.78h16.675c4.541 0 8.203 3.539 8.203 7.78v13.44Z"/>
        <path fill="#666" d="m134.114 226.562.316.011.315.019.313.027.311.034.309.042.308.049.306.056.303.063.302.071.299.078.297.084.295.092.292.099.29.106.287.112.285.12.282.126.279.133.277.139.273.147.271.153.268.16.264.166.262.173.258.181.255.186.251.193.247.2.244.207.241.214.236.22.233.227.228.234.225.241.22.248.215.255.21.261.206.269.201.276.196.282.191.29.184.297.179.304.173.311.166.318.16.325.153.332.147.338.138.346.131.352.123.358.115.364.106.371.097.376.088.381.079.387.068.391.059.396.049.4.038.403.027.406.016.408.005.357v13.546l-.005.357-.016.408-.027.406-.038.403-.049.4-.059.396-.068.391-.079.387-.088.381-.097.376-.106.371-.115.364-.123.358-.131.352-.138.346-.146.338-.154.332-.16.325-.166.318-.173.311-.179.304-.184.297-.191.29-.196.282-.201.276-.205.269-.211.261-.216.255-.219.248-.225.241-.228.234-.233.227-.236.22-.241.214-.243.206-.248.201-.252.193-.254.186-.258.181-.262.173-.264.166-.268.16-.271.153-.273.147-.277.139-.279.133-.282.126-.285.12-.287.112-.29.106-.292.099-.295.092-.297.084-.299.078-.302.071-.304.063-.305.056-.307.049-.31.042-.311.034-.313.027-.315.019-.316.011-.291.004h-16.727l-.291-.004-.316-.011-.315-.019-.313-.026-.312-.033-.31-.041-.308-.047-.306-.054-.305-.06-.303-.068-.301-.073-.299-.081-.297-.086-.295-.093-.293-.099-.292-.105-.289-.111-.286-.117-.285-.123-.282-.129-.28-.136-.278-.141-.276-.147-.272-.153-.271-.16-.268-.165-.266-.172-.262-.177-.261-.184-.257-.191-.254-.196-.252-.204-.249-.21-.245-.216-.243-.224-.238-.23-.236-.238-.232-.246-.228-.253-.225-.26-.22-.269-.216-.277-.212-.285-.206-.294-.202-.303-.196-.312-.191-.321-.184-.331-.177-.34-.171-.35-.163-.361-.155-.37-.146-.38-.136-.39-.127-.399-.116-.409-.105-.419-.092-.426-.08-.435-.067-.443-.052-.449-.038-.454-.024-.459-.006-.397v-13.572l.006-.397.024-.459.038-.454.052-.449.067-.443.08-.435.092-.426.105-.418.116-.41.127-.399.136-.39.146-.38.155-.37.163-.361.171-.35.177-.34.185-.331.19-.321.196-.312.202-.303.206-.294.212-.285.216-.277.22-.269.225-.26.228-.253.232-.246.235-.237.239-.231.243-.224.246-.217.248-.209.251-.204.255-.196.258-.191.26-.184.262-.177.266-.172.268-.165.271-.16.272-.153.276-.147.278-.141.28-.136.282-.129.285-.123.286-.117.289-.111.292-.105.293-.099.295-.093.297-.087.299-.08.301-.073.303-.067.305-.061.306-.054.309-.047.31-.041.311-.033.313-.026.315-.019.316-.011.291-.004h16.727l.291.004ZM117.122 233l-.213.003-.213.007-.212.013-.213.018-.212.022-.211.028-.211.032-.211.037-.209.042-.209.046-.208.051-.206.056-.206.059-.204.064-.202.069-.201.072-.2.077-.197.081-.196.084-.194.089-.192.093-.19.096-.187.101-.185.103-.183.108-.18.111-.177.115-.174.118-.172.121-.169.125-.165.128-.162.131-.159.134-.156.137-.152.14-.148.143-.145.146-.14.149-.137.152-.133.154-.128.156-.124.16-.12.161-.116.164-.11.167-.107.168-.101.171-.096.173-.091.175-.087.177-.081.179-.075.181-.07.183-.065.184-.059.186-.053.188-.048.189-.041.191-.035.192-.029.194-.023.195-.017.196-.01.197-.003.198v13.44l.003.198.01.197.017.196.023.195.029.194.035.192.041.191.048.189.053.188.059.186.065.184.07.183.075.181.081.179.087.177.091.175.096.173.101.171.107.168.11.167.116.164.12.161.124.16.128.156.133.154.137.152.14.149.145.146.148.143.152.14.156.137.159.134.162.131.165.128.169.125.172.121.174.118.177.115.18.111.183.108.185.103.187.101.19.096.192.093.194.089.196.084.197.081.2.077.201.072.202.069.204.064.206.059.206.056.208.051.209.046.209.042.211.037.211.032.211.028.212.022.213.018.212.013.213.007.213.003h16.675l.212-.003.211-.007.209-.013.208-.018.207-.022.205-.028.203-.032.201-.037.2-.042.198-.046.195-.051.194-.056.192-.059.19-.064.187-.069.185-.072.183-.077.181-.081.178-.084.176-.089.173-.093.17-.096.168-.101.165-.103.162-.108.16-.111.156-.115.153-.118.151-.121.147-.125.144-.128.14-.131.138-.134.134-.137.13-.14.127-.143.124-.146.119-.149.117-.152.112-.154.108-.156.105-.16.1-.161.097-.164.093-.167.088-.168.084-.171.08-.173.075-.175.071-.177.067-.179.062-.181.058-.183.052-.184.048-.186.044-.188.038-.189.034-.191.028-.192.024-.194.018-.195.013-.196.008-.197.003-.198v-13.44l-.003-.198-.008-.197-.013-.196-.018-.195-.024-.194-.028-.192-.034-.191-.038-.189-.044-.188-.048-.186-.052-.184-.058-.183-.062-.181-.067-.179-.071-.177-.075-.175-.08-.173-.084-.171-.088-.168-.093-.167-.097-.164-.1-.161-.105-.16-.108-.156-.112-.154-.117-.152-.119-.149-.124-.146-.127-.143-.13-.14-.134-.137-.138-.134-.14-.131-.144-.128-.147-.125-.151-.121-.153-.118-.156-.115-.16-.111-.162-.108-.165-.103-.168-.101-.17-.096-.173-.093-.176-.089-.178-.084-.181-.081-.183-.077-.185-.072-.187-.069-.19-.064-.192-.059-.194-.056-.195-.051-.198-.046-.2-.042-.201-.037-.203-.032-.205-.028-.207-.022-.208-.018-.209-.013-.211-.007-.212-.003h-16.675Z"/>
      </g>
      <g transform="translate(-3.41811 15.4125)">
        <path fill="#e6e6e6" fill-rule="nonzero" d="M179 254.22c0 4.241-3.784 7.78-8.325 7.78h-16.68c-4.541 0-9-3.539-9-7.78v-13.44c0-4.241 4.459-7.78 9-7.78h16.675c4.541 0 8.325 3.539 8.325 7.78v13.44H179Z"/>
        <path fill="#666" d="m170.987 226.562.316.011.315.019.313.027.311.034.309.041.308.049.306.056.303.063.302.07.299.077.298.084.294.091.293.098.29.105.288.111.285.118.283.125.28.132.277.138.274.144.272.152.268.158.266.164.262.172.259.177.256.184.253.191.25.198.245.205.242.21.239.218.235.225.231.231.227.239.222.245.218.252.214.26.209.267.204.273.2.281.194.288.188.296.183.303.177.309.17.318.165.325.157.332.15.339.143.346.136.353.127.361.119.367.11.373.101.38.091.385.082.391.072.397.062.401.05.405.04.409.029.413.017.415.005.362v13.238l.002.047.002.32-.004.307-.017.415-.029.413-.04.409-.05.405-.062.401-.072.396-.082.392-.091.385-.101.38-.11.373-.119.367-.127.36-.136.354-.143.346-.15.339-.157.332-.165.325-.17.317-.177.31-.183.303-.188.296-.194.288-.2.281-.204.274-.209.266-.214.259-.218.253-.222.245-.227.238-.231.232-.235.225-.239.218-.242.211-.245.204-.25.197-.253.192-.256.184-.259.177-.262.172-.266.164-.269.158-.271.152-.274.144-.277.138-.28.132-.283.125-.285.118-.288.111-.29.105-.292.098-.296.091-.297.084-.299.077-.302.07-.303.063-.306.056-.307.049-.31.041-.311.034-.313.027-.315.019-.316.011-.291.004h-16.732l-.291-.004-.316-.011-.315-.019-.313-.026-.312-.034-.309-.04-.308-.047-.306-.055-.305-.061-.303-.067-.3-.075-.299-.08-.297-.087-.295-.094-.292-.099-.291-.106-.288-.112-.286-.119-.284-.124-.281-.131-.279-.136-.277-.143-.274-.148-.272-.155-.269-.161-.267-.167-.264-.173-.261-.18-.259-.186-.255-.192-.253-.199-.249-.205-.247-.212-.243-.219-.24-.226-.237-.233-.233-.24-.229-.247-.225-.255-.222-.262-.217-.271-.213-.279-.208-.287-.203-.295-.198-.304-.193-.313-.186-.322-.181-.331-.173-.341-.167-.35-.158-.359-.151-.369-.142-.379-.132-.387-.123-.397-.112-.406-.101-.414-.089-.422-.077-.43-.064-.437-.051-.443-.037-.448-.022-.453-.006-.39v-13.57l.006-.39.022-.453.037-.448.051-.443.064-.437.077-.43.089-.422.101-.414.112-.406.123-.397.132-.387.142-.379.151-.369.158-.359.167-.35.173-.341.18-.331.187-.322.193-.313.197-.304.204-.295.208-.287.213-.279.217-.271.221-.262.226-.255.229-.248.233-.239.237-.233.24-.226.243-.219.247-.212.249-.205.253-.199.255-.192.259-.186.261-.18.264-.173.267-.167.269-.161.272-.155.274-.148.277-.143.279-.137.281-.13.284-.124.286-.119.288-.112.291-.106.292-.099.295-.094.297-.087.299-.08.301-.075.302-.067.304-.061.307-.055.308-.047.309-.04.312-.034.313-.026.315-.019.316-.011.291-.004h16.727l.291.004ZM153.995 233l-.213.003-.212.007-.213.013-.211.018-.212.022-.21.028-.21.032-.209.037-.209.042-.207.046-.206.051-.205.056-.203.059-.202.064-.201.069-.199.072-.197.077-.196.081-.193.084-.192.089-.189.093-.187.096-.185.101-.182.103-.18.108-.177.111-.175.115-.171.118-.169.121-.166.125-.163.128-.159.131-.156.134-.153.137-.149.14-.145.143-.142.146-.138.149-.134.152-.13.154-.126.156-.121.16-.117.161-.113.164-.109.167-.103.168-.099.171-.094.173-.09.175-.084.177-.079.179-.074.181-.068.183-.063.184-.058.186-.052.188-.046.189-.04.191-.034.192-.029.194-.022.195-.016.196-.01.197-.003.198v13.44l.003.198.01.197.016.196.022.195.029.194.034.192.04.191.046.189.052.188.058.186.063.184.068.183.074.181.079.179.084.177.09.175.094.173.099.171.103.168.109.167.113.164.117.161.121.16.126.156.13.154.134.152.138.149.142.146.145.143.149.14.153.137.156.134.159.131.163.128.166.125.169.121.171.118.175.115.177.111.18.108.182.103.185.101.187.096.189.093.192.089.193.084.196.081.197.077.199.072.201.069.202.064.203.059.205.056.206.051.207.046.209.042.209.037.21.032.21.028.212.022.211.018.213.013.212.007.213.003h16.68l.212-.003.211-.007.21-.013.209-.018.207-.022.206-.028.204-.032.202-.037.201-.042.2-.046.197-.051.196-.056.193-.059.192-.064.189-.069.188-.072.185-.077.182-.081.181-.084.178-.089.176-.093.173-.096.17-.101.168-.103.165-.108.162-.111.159-.115.156-.118.153-.121.15-.125.147-.128.143-.131.141-.134.136-.137.134-.14.13-.143.126-.146.122-.149.119-.152.115-.154.111-.156.108-.16.103-.161.099-.164.095-.167.09-.168.087-.171.082-.173.077-.175.073-.177.069-.179.064-.181.059-.183.054-.184.05-.186.045-.188.039-.189.035-.191.029-.192.024-.194.019-.195.014-.196.008-.197.003-.198h-.005v-13.44l-.003-.198-.008-.197-.014-.196-.019-.195-.024-.194-.029-.192-.035-.191-.039-.189-.045-.188-.05-.186-.054-.184-.059-.183-.064-.181-.069-.179-.073-.177-.077-.175-.082-.173-.087-.171-.09-.168-.095-.167-.099-.164-.103-.161-.108-.16-.111-.156-.115-.154-.119-.152-.122-.149-.126-.146-.13-.143-.134-.14-.136-.137-.141-.134-.143-.131-.147-.128-.15-.125-.153-.121-.156-.118-.159-.115-.162-.111-.165-.108-.168-.103-.17-.101-.173-.096-.176-.093-.178-.089-.181-.084-.182-.081-.185-.077-.188-.072-.189-.069-.192-.064-.193-.059-.196-.056-.197-.051-.2-.046-.201-.042-.202-.037-.204-.032-.206-.028-.207-.022-.209-.018-.21-.013-.211-.007-.212-.003h-16.675Z"/>
      </g>
      <g transform="translate(17.3925 15.4125)">
        <path fill="#e6e6e6" fill-rule="nonzero" d="M216 254.22c0 4.241-3.784 7.78-8.325 7.78h-16.68c-4.541 0-9-3.539-9-7.78v-13.44c0-4.241 4.459-7.78 9-7.78h16.675c4.541 0 8.325 3.539 8.325 7.78v13.44H216Z"/>
        <path fill="#666" d="m207.987 226.562.316.011.315.019.313.027.311.034.309.041.308.049.306.056.303.063.302.07.299.077.298.084.294.091.293.098.29.105.288.111.285.118.283.125.28.132.277.138.274.144.272.152.268.158.266.164.262.172.259.177.256.185.253.19.25.198.245.205.242.21.239.218.235.225.231.231.227.239.222.245.218.252.214.26.209.267.204.273.199.281.194.288.189.296.183.303.177.309.17.318.165.325.157.332.15.339.143.346.136.354.127.36.119.367.11.373.101.38.091.385.082.392.072.396.062.401.05.405.04.409.029.413.017.415.005.362v13.238l.002.047.002.32-.004.307-.017.415-.029.412-.04.41-.05.406-.062.4-.072.396-.081.391-.092.386-.101.38-.11.373-.119.367-.127.36-.136.354-.142.346-.151.339-.158.333-.164.324-.17.317-.177.311-.183.302-.188.296-.194.288-.2.281-.204.274-.209.266-.214.259-.218.253-.222.245-.227.238-.231.232-.235.225-.239.218-.242.21-.245.205-.25.198-.253.19-.256.185-.259.177-.262.172-.266.164-.269.158-.271.152-.274.144-.277.138-.281.132-.282.125-.285.118-.288.111-.29.105-.292.098-.296.091-.297.084-.299.077-.302.07-.303.063-.306.056-.307.049-.31.041-.311.034-.313.027-.315.019-.316.011-.291.004h-16.732l-.291-.004-.316-.011-.315-.019-.313-.026-.312-.034-.309-.04-.308-.047-.306-.055-.305-.061-.303-.067-.3-.075-.299-.08-.297-.087-.295-.094-.292-.099-.291-.106-.288-.112-.286-.119-.284-.124-.281-.131-.279-.136-.277-.143-.274-.148-.272-.155-.269-.161-.267-.167-.264-.173-.261-.18-.259-.186-.255-.192-.253-.199-.249-.205-.247-.212-.243-.219-.24-.226-.237-.233-.233-.24-.229-.247-.225-.255-.222-.262-.217-.271-.213-.279-.208-.287-.203-.295-.198-.304-.193-.313-.186-.322-.181-.331-.173-.341-.167-.35-.158-.359-.151-.369-.142-.379-.132-.387-.123-.397-.112-.406-.101-.414-.089-.422-.077-.43-.064-.437-.051-.443-.037-.448-.022-.453-.006-.391v-13.568l.006-.391.022-.453.037-.448.051-.443.064-.437.077-.43.089-.422.101-.414.112-.406.123-.397.132-.387.142-.379.151-.369.158-.359.167-.35.173-.341.181-.331.186-.322.193-.313.197-.304.204-.295.208-.287.213-.279.217-.271.221-.262.226-.255.229-.248.233-.239.237-.233.24-.226.243-.219.247-.212.249-.205.253-.199.255-.192.259-.186.261-.18.264-.173.267-.167.269-.161.272-.155.274-.148.277-.143.279-.137.281-.13.284-.124.286-.119.288-.112.291-.106.292-.099.295-.094.297-.087.299-.08.3-.075.303-.067.304-.061.307-.055.308-.047.309-.04.312-.034.313-.026.315-.019.316-.011.291-.004h16.727l.291.004ZM190.995 233l-.213.003-.212.007-.213.013-.211.018-.212.022-.21.028-.21.032-.209.037-.209.042-.207.046-.206.051-.205.056-.203.059-.202.064-.201.069-.199.072-.197.077-.196.081-.193.084-.192.089-.189.093-.187.096-.185.101-.182.103-.18.108-.177.111-.175.115-.171.118-.169.121-.166.125-.163.128-.159.131-.156.134-.153.137-.149.14-.145.143-.142.146-.138.149-.134.152-.13.154-.126.156-.121.16-.117.161-.113.164-.109.167-.103.168-.099.171-.094.173-.09.175-.084.177-.079.179-.074.181-.068.183-.063.184-.058.186-.052.188-.046.189-.04.191-.034.192-.029.194-.022.195-.016.196-.01.197-.003.198v13.44l.003.198.01.197.016.196.022.195.029.194.034.192.04.191.046.189.052.188.058.186.063.184.068.183.074.181.079.179.084.177.09.175.094.173.099.171.103.168.109.167.113.164.117.161.121.16.126.156.13.154.134.152.138.149.142.146.145.143.149.14.153.137.156.134.159.131.163.128.166.125.169.121.171.118.175.115.177.111.18.108.182.103.185.101.187.096.189.093.192.089.193.084.196.081.197.077.199.072.201.069.202.064.203.059.205.056.206.051.207.046.209.042.209.037.21.032.21.028.212.022.211.018.213.013.212.007.213.003h16.68l.212-.003.211-.007.21-.013.209-.018.207-.022.206-.028.204-.032.202-.037.201-.042.2-.046.197-.051.196-.056.193-.059.192-.064.189-.069.188-.072.185-.077.182-.081.181-.084.178-.089.176-.093.173-.096.17-.101.168-.103.165-.108.162-.111.159-.115.156-.118.153-.121.15-.125.147-.128.143-.131.141-.134.136-.137.134-.14.13-.143.126-.146.122-.149.119-.152.115-.154.111-.156.108-.16.103-.161.099-.164.095-.167.09-.168.087-.171.082-.173.077-.175.073-.177.069-.179.064-.181.059-.183.054-.184.05-.186.045-.188.039-.189.035-.191.029-.192.024-.194.019-.195.014-.196.008-.197.003-.198h-.005v-13.44l-.003-.198-.008-.197-.014-.196-.019-.195-.024-.194-.029-.192-.035-.191-.039-.189-.045-.188-.05-.186-.054-.184-.059-.183-.064-.181-.069-.179-.073-.177-.077-.175-.082-.173-.087-.171-.09-.168-.095-.167-.099-.164-.103-.161-.108-.16-.111-.156-.115-.154-.119-.152-.122-.149-.126-.146-.13-.143-.134-.14-.136-.137-.141-.134-.143-.131-.147-.128-.15-.125-.153-.121-.156-.118-.159-.115-.162-.111-.165-.108-.168-.103-.17-.101-.173-.096-.176-.093-.178-.089-.181-.084-.182-.081-.185-.077-.188-.072-.189-.069-.192-.064-.193-.059-.196-.056-.197-.051-.2-.046-.201-.042-.202-.037-.204-.032-.206-.028-.207-.022-.209-.018-.21-.013-.211-.007-.212-.003h-16.675Z"/>
      </g>
      <g transform="translate(-24.2287 -24.1671)">
        <path fill="#e6e6e6" fill-rule="nonzero" d="M142 190.22c0 4.241-3.662 7.78-8.203 7.78h-16.675c-4.541 0-9.123-3.539-9.123-7.78v-13.44c0-4.241 4.582-7.78 9.123-7.78h16.675c4.541 0 8.203 3.539 8.203 7.78v13.44Z"/>
        <path fill="#666" d="m134.114 162.562.316.011.315.019.313.027.311.034.309.042.308.049.305.056.304.063.302.071.299.078.297.084.295.092.292.099.29.106.287.112.285.119.282.127.279.133.277.139.273.147.271.153.268.16.264.166.262.174.258.179.254.187.252.193.247.201.244.206.241.214.236.22.233.227.228.234.225.241.219.248.216.255.21.261.206.269.201.276.196.282.19.29.185.297.179.304.173.311.166.318.16.325.153.332.146.338.139.346.131.352.123.358.115.364.106.371.097.376.088.381.079.387.068.391.059.396.049.4.038.403.027.406.016.408.005.357v13.546l-.005.357-.016.408-.027.406-.038.403-.049.4-.059.396-.068.391-.079.387-.088.381-.097.376-.106.371-.115.364-.123.358-.131.352-.139.346-.146.338-.153.332-.16.325-.166.318-.173.311-.179.304-.185.297-.19.29-.196.282-.201.276-.206.269-.21.261-.215.255-.22.248-.225.241-.228.234-.233.227-.236.22-.241.214-.244.206-.247.201-.252.193-.254.186-.258.181-.262.173-.264.166-.268.16-.271.153-.273.147-.277.139-.279.133-.282.127-.285.119-.287.112-.29.106-.292.099-.295.092-.297.084-.299.078-.302.071-.304.063-.305.056-.308.049-.309.042-.311.034-.313.027-.315.019-.316.011-.291.004h-16.727l-.291-.004-.316-.011-.315-.019-.313-.026-.311-.033-.31-.041-.309-.047-.306-.054-.305-.06-.303-.068-.301-.073-.299-.081-.297-.086-.295-.093-.293-.099-.292-.105-.289-.111-.286-.117-.285-.123-.282-.129-.28-.136-.278-.141-.276-.147-.273-.153-.27-.16-.268-.165-.266-.172-.262-.177-.261-.184-.257-.191-.254-.196-.252-.204-.249-.21-.245-.216-.242-.224-.24-.231-.235-.237-.232-.246-.228-.252-.225-.261-.22-.269-.216-.277-.212-.285-.206-.294-.202-.303-.196-.312-.191-.321-.184-.331-.177-.34-.171-.35-.163-.361-.155-.37-.146-.38-.136-.39-.127-.399-.116-.41-.105-.418-.092-.426-.08-.435-.067-.443-.052-.448-.038-.455-.024-.459-.006-.397v-13.572l.006-.397.024-.459.038-.455.052-.448.067-.443.08-.435.092-.426.105-.418.116-.41.127-.399.136-.39.146-.38.155-.37.163-.36.171-.351.177-.34.184-.331.191-.321.196-.312.202-.303.206-.294.212-.285.216-.277.22-.269.225-.261.228-.252.232-.246.236-.238.239-.23.242-.224.245-.216.249-.21.252-.204.254-.196.257-.191.261-.184.262-.177.266-.172.268-.165.27-.16.273-.153.276-.147.278-.141.28-.136.282-.129.285-.123.287-.117.289-.111.29-.105.294-.099.295-.093.297-.086.299-.081.301-.073.303-.068.305-.06.306-.054.309-.047.31-.041.311-.033.313-.026.315-.019.316-.011.291-.004h16.727l.291.004ZM117.122 169l-.213.003-.213.007-.212.013-.213.018-.212.022-.211.028-.211.032-.211.037-.209.042-.209.046-.208.051-.206.056-.206.059-.204.064-.202.069-.201.072-.2.077-.197.081-.196.084-.194.089-.192.093-.19.096-.187.101-.185.103-.183.108-.18.111-.177.115-.174.118-.172.121-.169.125-.165.128-.162.131-.159.134-.156.137-.152.14-.148.143-.145.146-.14.149-.137.152-.133.154-.128.156-.124.16-.12.161-.116.164-.11.167-.107.168-.101.171-.096.173-.091.175-.087.177-.081.179-.075.181-.07.183-.065.184-.059.186-.053.188-.048.189-.041.191-.035.192-.029.194-.023.195-.017.196-.01.197-.003.198v13.44l.003.198.01.197.017.196.023.195.029.194.035.192.041.191.048.189.053.188.059.186.065.184.07.183.075.181.081.179.087.177.091.175.096.173.101.171.107.168.11.167.116.164.12.161.124.16.128.156.133.154.137.152.14.149.145.146.148.143.152.14.156.137.159.134.162.131.165.128.169.125.172.121.174.118.177.115.18.111.183.108.185.103.187.101.19.096.192.093.194.089.196.084.197.081.2.077.201.072.202.069.204.064.206.059.206.056.208.051.209.046.209.042.211.037.211.032.211.028.212.022.213.018.212.013.213.007.213.003h16.675l.212-.003.211-.007.209-.013.208-.018.207-.022.205-.028.203-.032.201-.037.2-.042.198-.046.195-.051.194-.056.192-.059.19-.064.187-.069.185-.072.183-.077.181-.081.178-.084.176-.089.173-.093.17-.096.168-.101.165-.103.162-.108.16-.111.156-.115.153-.118.151-.121.147-.125.144-.128.14-.131.138-.134.134-.137.13-.14.127-.143.124-.146.119-.149.117-.152.112-.154.108-.156.105-.16.1-.161.097-.164.093-.167.088-.168.084-.171.08-.173.075-.175.071-.177.067-.179.062-.181.058-.183.052-.184.048-.186.044-.188.038-.189.034-.191.028-.192.024-.194.018-.195.013-.196.008-.197.003-.198v-13.44l-.003-.198-.008-.197-.013-.196-.018-.195-.024-.194-.028-.192-.034-.191-.038-.189-.044-.188-.048-.186-.052-.184-.058-.183-.062-.181-.067-.179-.071-.177-.075-.175-.08-.173-.084-.171-.088-.168-.093-.167-.097-.164-.1-.161-.105-.16-.108-.156-.112-.154-.117-.152-.119-.149-.124-.146-.127-.143-.13-.14-.134-.137-.138-.134-.14-.131-.144-.128-.147-.125-.151-.121-.153-.118-.156-.115-.16-.111-.162-.108-.165-.103-.168-.101-.17-.096-.173-.093-.176-.089-.178-.084-.181-.081-.183-.077-.185-.072-.187-.069-.19-.064-.192-.059-.194-.056-.195-.051-.198-.046-.2-.042-.201-.037-.203-.032-.205-.028-.207-.022-.208-.018-.209-.013-.211-.007-.212-.003h-16.675Z"/>
      </g>
      <g transform="translate(-3.41811 -24.1671)">
        <path fill="#e6e6e6" fill-rule="nonzero" d="M179 190.22c0 4.241-3.784 7.78-8.325 7.78h-16.68c-4.541 0-9-3.539-9-7.78v-13.44c0-4.241 4.459-7.78 9-7.78h16.675c4.541 0 8.325 3.539 8.325 7.78v13.44H179Z"/>
        <path fill="#666" d="m170.987 162.562.316.011.315.019.313.027.311.034.309.041.308.049.306.056.303.063.302.07.299.077.298.084.294.091.293.098.29.105.288.111.285.118.283.125.28.132.277.138.274.144.272.152.268.158.266.164.262.171.259.178.256.184.253.191.25.198.245.205.243.211.238.217.235.225.231.231.227.239.222.245.218.252.214.26.209.267.204.273.2.281.194.288.188.296.183.302.177.311.17.317.165.325.157.332.15.339.143.346.136.354.127.36.119.367.11.373.101.38.091.385.082.391.072.397.062.401.05.405.04.409.029.413.017.415.005.362v13.238l.002.047.002.32-.004.307-.017.415-.029.413-.04.409-.05.405-.062.401-.072.396-.082.392-.091.385-.101.38-.11.373-.119.367-.127.36-.136.354-.143.346-.15.339-.157.332-.165.325-.17.317-.177.31-.183.303-.189.296-.194.288-.199.281-.204.273-.209.267-.214.259-.218.253-.222.245-.227.238-.231.232-.235.225-.238.217-.243.212-.245.204-.25.197-.253.191-.256.185-.259.178-.263.171-.265.164-.268.158-.272.152-.274.144-.277.138-.28.132-.283.125-.285.118-.288.111-.29.105-.293.098-.294.091-.298.084-.299.077-.302.07-.303.063-.306.056-.308.049-.309.041-.311.034-.313.027-.315.019-.316.011-.291.004h-16.732l-.291-.004-.316-.011-.315-.019-.313-.026-.311-.034-.31-.04-.308-.047-.307-.055-.304-.061-.303-.067-.3-.075-.299-.08-.297-.087-.295-.094-.292-.099-.291-.106-.288-.112-.286-.119-.284-.124-.281-.13-.279-.137-.277-.143-.274-.148-.272-.155-.269-.161-.267-.167-.264-.173-.261-.18-.258-.186-.256-.192-.253-.199-.249-.205-.247-.212-.243-.219-.24-.226-.237-.233-.233-.239-.229-.248-.226-.255-.221-.262-.217-.271-.213-.279-.208-.287-.203-.295-.198-.304-.193-.313-.186-.322-.181-.331-.173-.341-.167-.35-.158-.359-.151-.369-.142-.379-.132-.387-.123-.397-.112-.406-.101-.414-.089-.422-.077-.43-.064-.437-.051-.443-.037-.448-.022-.453-.006-.39v-13.57l.006-.39.022-.453.037-.448.051-.443.064-.437.077-.43.089-.422.101-.414.112-.406.123-.397.132-.387.142-.379.151-.369.158-.359.167-.35.173-.341.181-.331.186-.322.193-.313.197-.304.204-.295.208-.287.213-.279.217-.271.221-.262.226-.255.229-.248.233-.239.237-.233.24-.226.243-.219.247-.212.249-.205.253-.199.256-.192.258-.186.261-.18.264-.173.267-.167.269-.161.272-.155.274-.148.277-.143.279-.137.281-.13.284-.124.286-.119.288-.112.291-.106.292-.099.295-.094.297-.087.299-.08.3-.075.303-.067.304-.061.307-.055.308-.047.31-.04.311-.034.313-.026.315-.019.316-.011.291-.004h16.727l.291.004ZM153.995 169l-.213.003-.212.007-.213.013-.211.018-.212.022-.21.028-.21.032-.209.037-.209.042-.207.046-.206.051-.205.056-.203.059-.202.064-.201.069-.199.072-.197.077-.196.081-.193.084-.192.089-.189.093-.187.096-.185.101-.182.103-.18.108-.177.111-.175.115-.171.118-.169.121-.166.125-.163.128-.159.131-.156.134-.153.137-.149.14-.145.143-.142.146-.138.149-.134.152-.13.154-.126.156-.121.16-.117.161-.113.164-.109.167-.103.168-.099.171-.094.173-.09.175-.084.177-.079.179-.074.181-.068.183-.063.184-.058.186-.052.188-.046.189-.04.191-.034.192-.029.194-.022.195-.016.196-.01.197-.003.198v13.44l.003.198.01.197.016.196.022.195.029.194.034.192.04.191.046.189.052.188.058.186.063.184.068.183.074.181.079.179.084.177.09.175.094.173.099.171.103.168.109.167.113.164.117.161.121.16.126.156.13.154.134.152.138.149.142.146.145.143.149.14.153.137.156.134.159.131.163.128.166.125.169.121.171.118.175.115.177.111.18.108.182.103.185.101.187.096.189.093.192.089.193.084.196.081.197.077.199.072.201.069.202.064.203.059.205.056.206.051.207.046.209.042.209.037.21.032.21.028.212.022.211.018.213.013.212.007.213.003h16.68l.212-.003.211-.007.21-.013.209-.018.207-.022.206-.028.204-.032.202-.037.201-.042.2-.046.197-.051.196-.056.193-.059.192-.064.189-.069.188-.072.185-.077.182-.081.181-.084.178-.089.176-.093.173-.096.17-.101.168-.103.165-.108.162-.111.159-.115.156-.118.153-.121.15-.125.147-.128.143-.131.141-.134.136-.137.134-.14.13-.143.126-.146.122-.149.119-.152.115-.154.111-.156.108-.16.103-.161.099-.164.095-.167.09-.168.087-.171.082-.173.077-.175.073-.177.069-.179.064-.181.059-.183.054-.184.05-.186.045-.188.039-.189.035-.191.029-.192.024-.194.019-.195.014-.196.008-.197.003-.198h-.005v-13.44l-.003-.198-.008-.197-.014-.196-.019-.195-.024-.194-.029-.192-.035-.191-.039-.189-.045-.188-.05-.186-.054-.184-.059-.183-.064-.181-.069-.179-.073-.177-.077-.175-.082-.173-.087-.171-.09-.168-.095-.167-.099-.164-.103-.161-.108-.16-.111-.156-.115-.154-.119-.152-.122-.149-.126-.146-.13-.143-.134-.14-.136-.137-.141-.134-.143-.131-.147-.128-.15-.125-.153-.121-.156-.118-.159-.115-.162-.111-.165-.108-.168-.103-.17-.101-.173-.096-.176-.093-.178-.089-.181-.084-.182-.081-.185-.077-.188-.072-.189-.069-.192-.064-.193-.059-.196-.056-.197-.051-.2-.046-.201-.042-.202-.037-.204-.032-.206-.028-.207-.022-.209-.018-.21-.013-.211-.007-.212-.003h-16.675Z"/>
      </g>
      <g transform="translate(17.3925 -24.1671)">
        <path fill="#e6e6e6" fill-rule="nonzero" d="M216 190.22c0 4.241-3.784 7.78-8.325 7.78h-16.68c-4.541 0-9-3.539-9-7.78v-13.44c0-4.241 4.459-7.78 9-7.78h16.675c4.541 0 8.325 3.539 8.325 7.78v13.44H216Z"/>
        <path fill="#666" d="m207.987 162.562.317.011.314.019.313.027.311.034.309.041.308.049.306.056.303.063.302.07.299.077.298.084.294.091.293.098.29.105.288.111.285.118.283.125.28.132.277.138.274.144.272.152.268.158.265.164.263.171.259.178.257.185.252.19.249.198.246.205.243.211.238.217.235.225.231.231.227.239.222.245.218.252.214.26.209.267.204.273.199.281.194.288.189.296.183.303.177.31.17.317.165.325.157.332.15.339.143.346.136.354.127.36.119.367.11.373.101.38.091.385.082.392.072.396.062.401.05.405.04.409.029.413.017.415.005.362v13.238l.002.047.002.32-.004.307-.017.415-.029.412-.04.41-.05.406-.062.4-.072.396-.082.391-.091.386-.101.38-.11.373-.119.367-.127.36-.136.354-.142.346-.151.339-.158.333-.163.324-.171.317-.177.311-.183.302-.189.296-.193.288-.2.281-.204.274-.209.266-.214.26-.218.252-.222.245-.227.239-.231.231-.235.225-.238.217-.243.211-.246.205-.249.198-.252.19-.257.185-.259.178-.262.171-.266.164-.268.158-.272.152-.274.144-.277.138-.28.132-.283.125-.285.118-.288.111-.29.105-.293.098-.294.091-.298.084-.299.077-.302.07-.303.063-.306.056-.308.049-.309.041-.311.034-.313.027-.315.019-.316.011-.291.004h-16.732l-.291-.004-.316-.011-.315-.019-.313-.026-.311-.034-.31-.04-.308-.047-.307-.055-.304-.061-.303-.067-.301-.075-.298-.08-.297-.087-.295-.094-.292-.099-.291-.106-.288-.112-.286-.119-.284-.124-.281-.13-.279-.137-.277-.143-.274-.148-.272-.155-.269-.161-.267-.167-.264-.174-.261-.179-.258-.186-.256-.192-.253-.199-.249-.205-.247-.212-.243-.219-.24-.226-.237-.233-.233-.239-.229-.248-.226-.255-.221-.262-.217-.271-.213-.279-.208-.287-.203-.295-.198-.304-.193-.313-.186-.322-.181-.331-.173-.341-.167-.35-.158-.359-.151-.369-.142-.379-.132-.387-.123-.397-.112-.406-.101-.414-.089-.422-.077-.43-.064-.437-.051-.443-.037-.448-.022-.453-.006-.391v-13.568l.006-.391.022-.453.037-.448.051-.443.064-.437.077-.43.089-.422.101-.414.112-.406.123-.397.132-.387.142-.379.151-.369.158-.359.167-.35.173-.341.181-.331.186-.322.193-.313.197-.304.204-.295.208-.287.213-.279.217-.271.221-.262.226-.255.229-.248.233-.239.237-.233.24-.226.243-.219.247-.212.249-.205.253-.199.256-.192.258-.186.261-.179.264-.174.267-.167.269-.161.272-.155.274-.148.277-.143.279-.137.281-.13.284-.124.286-.119.288-.112.291-.106.292-.099.295-.094.297-.087.298-.08.301-.075.303-.067.304-.061.307-.055.308-.047.31-.04.311-.034.313-.026.315-.019.316-.011.291-.004h16.727l.291.004ZM190.995 169l-.213.003-.212.007-.213.013-.211.018-.212.022-.21.028-.21.032-.209.037-.209.042-.207.046-.206.051-.205.056-.203.059-.202.064-.201.069-.199.072-.197.077-.196.081-.193.084-.192.089-.189.093-.187.096-.185.101-.182.103-.18.108-.177.111-.175.115-.171.118-.169.121-.166.125-.163.128-.159.131-.156.134-.153.137-.149.14-.145.143-.142.146-.138.149-.134.152-.13.154-.126.156-.121.16-.117.161-.113.164-.109.167-.103.168-.099.171-.094.173-.09.175-.084.177-.079.179-.074.181-.068.183-.063.184-.058.186-.052.188-.046.189-.04.191-.034.192-.029.194-.022.195-.016.196-.01.197-.003.198v13.44l.003.198.01.197.016.196.022.195.029.194.034.192.04.191.046.189.052.188.058.186.063.184.068.183.074.181.079.179.084.177.09.175.094.173.099.171.103.168.109.167.113.164.117.161.121.16.126.156.13.154.134.152.138.149.142.146.145.143.149.14.153.137.156.134.159.131.163.128.166.125.169.121.171.118.175.115.177.111.18.108.182.103.185.101.187.096.189.093.192.089.193.084.196.081.197.077.199.072.201.069.202.064.203.059.205.056.206.051.207.046.209.042.209.037.21.032.21.028.212.022.211.018.213.013.212.007.213.003h16.68l.212-.003.211-.007.21-.013.209-.018.207-.022.206-.028.204-.032.202-.037.201-.042.2-.046.197-.051.196-.056.193-.059.192-.064.189-.069.188-.072.185-.077.182-.081.181-.084.178-.089.176-.093.173-.096.17-.101.168-.103.165-.108.162-.111.159-.115.156-.118.153-.121.15-.125.147-.128.143-.131.141-.134.136-.137.134-.14.13-.143.126-.146.122-.149.119-.152.115-.154.111-.156.108-.16.103-.161.099-.164.095-.167.09-.168.087-.171.082-.173.077-.175.073-.177.069-.179.064-.181.059-.183.054-.184.05-.186.045-.188.039-.189.035-.191.029-.192.024-.194.019-.195.014-.196.008-.197.003-.198h-.005v-13.44l-.003-.198-.008-.197-.014-.196-.019-.195-.024-.194-.029-.192-.035-.191-.039-.189-.045-.188-.05-.186-.054-.184-.059-.183-.064-.181-.069-.179-.073-.177-.077-.175-.082-.173-.087-.171-.09-.168-.095-.167-.099-.164-.103-.161-.108-.16-.111-.156-.115-.154-.119-.152-.122-.149-.126-.146-.13-.143-.134-.14-.136-.137-.141-.134-.143-.131-.147-.128-.15-.125-.153-.121-.156-.118-.159-.115-.162-.111-.165-.108-.168-.103-.17-.101-.173-.096-.176-.093-.178-.089-.181-.084-.182-.081-.185-.077-.188-.072-.189-.069-.192-.064-.193-.059-.196-.056-.197-.051-.2-.046-.201-.042-.202-.037-.204-.032-.206-.028-.207-.022-.209-.018-.21-.013-.211-.007-.212-.003h-16.675Z"/>
      </g>
      <g transform="translate(-24.2287 35.2022)">
        <path fill="#e6e6e6" fill-rule="nonzero" d="M142 286.22c0 4.241-3.662 7.78-8.203 7.78h-16.675c-4.541 0-9.123-3.539-9.123-7.78v-13.44c0-4.241 4.582-7.78 9.123-7.78h16.675c4.541 0 8.203 3.539 8.203 7.78v13.44Z"/>
        <path fill="#666" d="m134.114 258.562.316.011.315.019.313.027.311.034.309.042.308.049.306.056.303.063.302.071.299.078.297.084.295.092.292.099.29.106.287.112.285.12.282.126.279.133.277.139.273.147.271.153.268.16.264.166.262.173.258.181.255.186.251.193.247.2.244.207.241.214.236.22.233.227.228.234.225.241.22.248.215.255.21.261.206.269.201.276.196.282.191.29.184.297.179.304.173.311.166.318.16.325.153.332.146.338.139.346.131.352.123.358.115.364.106.371.097.376.088.381.079.387.068.391.059.396.049.4.038.403.027.406.016.408.005.357v13.546l-.005.357-.016.408-.027.406-.038.403-.049.4-.059.396-.068.391-.079.387-.088.381-.097.376-.106.371-.115.364-.123.358-.131.352-.138.346-.146.338-.154.332-.16.325-.166.318-.173.311-.179.304-.184.297-.191.29-.196.282-.201.276-.205.269-.211.261-.216.255-.219.248-.225.241-.228.234-.233.227-.236.22-.241.214-.243.206-.248.201-.252.193-.254.186-.258.181-.262.173-.264.166-.268.16-.271.153-.273.147-.277.139-.279.133-.282.127-.285.119-.287.112-.29.106-.292.099-.295.092-.297.084-.299.078-.302.071-.304.063-.305.056-.307.049-.31.042-.311.034-.313.027-.315.019-.316.011-.291.004h-16.727l-.291-.004-.316-.011-.315-.019-.313-.026-.312-.033-.31-.041-.308-.047-.306-.054-.305-.06-.303-.068-.301-.073-.299-.081-.297-.086-.295-.093-.293-.099-.292-.105-.288-.111-.287-.117-.285-.123-.282-.129-.28-.136-.278-.141-.276-.147-.272-.153-.271-.16-.268-.165-.266-.172-.262-.177-.261-.184-.257-.191-.254-.196-.252-.204-.249-.21-.245-.216-.243-.224-.238-.23-.236-.238-.232-.246-.228-.253-.225-.26-.22-.269-.216-.277-.212-.285-.206-.294-.202-.303-.196-.312-.191-.321-.184-.331-.177-.34-.171-.35-.163-.361-.155-.37-.146-.38-.136-.39-.127-.399-.116-.409-.105-.419-.092-.426-.08-.435-.067-.443-.052-.449-.038-.454-.024-.459-.006-.397v-13.572l.006-.397.024-.459.038-.455.052-.448.067-.443.08-.435.092-.426.105-.418.116-.41.127-.399.136-.39.146-.38.155-.37.163-.361.171-.35.177-.34.184-.331.191-.321.196-.312.202-.303.206-.294.212-.285.216-.277.22-.269.225-.26.228-.253.232-.246.235-.237.239-.231.243-.224.246-.217.248-.209.251-.204.255-.196.258-.191.26-.184.262-.177.266-.172.268-.165.271-.16.272-.153.276-.147.278-.141.28-.136.282-.129.285-.123.286-.117.289-.111.292-.105.293-.099.295-.093.297-.087.299-.08.301-.073.303-.067.305-.061.306-.054.309-.047.31-.041.311-.033.313-.026.315-.019.316-.011.291-.004h16.727l.291.004ZM117.122 265l-.213.003-.213.007-.212.013-.213.018-.212.022-.211.028-.211.032-.211.037-.209.042-.209.046-.208.051-.206.056-.206.059-.204.064-.202.069-.201.072-.2.077-.197.081-.196.084-.194.089-.192.093-.19.096-.187.101-.185.103-.183.108-.18.111-.177.115-.174.118-.172.121-.169.125-.165.128-.162.131-.159.134-.156.137-.152.14-.148.143-.145.146-.14.149-.137.152-.133.154-.128.156-.124.16-.12.161-.116.164-.11.167-.107.168-.101.171-.096.173-.091.175-.087.177-.081.179-.075.181-.07.183-.065.184-.059.186-.053.188-.048.189-.041.191-.035.192-.029.194-.023.195-.017.196-.01.197-.003.198v13.44l.003.198.01.197.017.196.023.195.029.194.035.192.041.191.048.189.053.188.059.186.065.184.07.183.075.181.081.179.087.177.091.175.096.173.101.171.107.168.11.167.116.164.12.161.124.16.128.156.133.154.137.152.14.149.145.146.148.143.152.14.156.137.159.134.162.131.165.128.169.125.172.121.174.118.177.115.18.111.183.108.185.103.187.101.19.096.192.093.194.089.196.084.197.081.2.077.201.072.202.069.204.064.206.059.206.056.208.051.209.046.209.042.211.037.211.032.211.028.212.022.213.018.212.013.213.007.213.003h16.675l.212-.003.211-.007.209-.013.208-.018.207-.022.205-.028.203-.032.201-.037.2-.042.198-.046.195-.051.194-.056.192-.059.19-.064.187-.069.185-.072.183-.077.181-.081.178-.084.176-.089.173-.093.17-.096.168-.101.165-.103.162-.108.16-.111.156-.115.153-.118.151-.121.147-.125.144-.128.14-.131.138-.134.134-.137.13-.14.127-.143.124-.146.119-.149.117-.152.112-.154.108-.156.105-.16.1-.161.097-.164.093-.167.088-.168.084-.171.08-.173.075-.175.071-.177.067-.179.062-.181.058-.183.052-.184.048-.186.044-.188.038-.189.034-.191.028-.192.024-.194.018-.195.013-.196.008-.197.003-.198v-13.44l-.003-.198-.008-.197-.013-.196-.018-.195-.024-.194-.028-.192-.034-.191-.038-.189-.044-.188-.048-.186-.052-.184-.058-.183-.062-.181-.067-.179-.071-.177-.075-.175-.08-.173-.084-.171-.088-.168-.093-.167-.097-.164-.1-.161-.105-.16-.108-.156-.112-.154-.117-.152-.119-.149-.124-.146-.127-.143-.13-.14-.134-.137-.138-.134-.14-.131-.144-.128-.147-.125-.151-.121-.153-.118-.156-.115-.16-.111-.162-.108-.165-.103-.168-.101-.17-.096-.173-.093-.176-.089-.178-.084-.181-.081-.183-.077-.185-.072-.187-.069-.19-.064-.192-.059-.194-.056-.195-.051-.198-.046-.2-.042-.201-.037-.203-.032-.205-.028-.207-.022-.208-.018-.209-.013-.211-.007-.212-.003h-16.675Z"/>
      </g>
      <g transform="translate(-3.41811 35.2022)">
        <path fill="#e6e6e6" fill-rule="nonzero" d="M179 286.22c0 4.241-3.784 7.78-8.325 7.78h-16.68c-4.541 0-9-3.539-9-7.78v-13.44c0-4.241 4.459-7.78 9-7.78h16.675c4.541 0 8.325 3.539 8.325 7.78v13.44H179Z"/>
        <path fill="#666" d="m170.987 258.562.316.011.315.019.313.027.311.034.31.041.307.049.305.056.304.063.302.07.299.077.297.084.296.091.292.098.29.105.288.111.285.118.283.125.28.132.277.138.274.144.271.152.269.158.266.164.262.172.259.177.256.184.253.191.25.198.245.205.242.21.239.218.235.225.231.232.227.238.222.245.218.253.214.259.209.266.204.274.2.281.194.289.188.295.183.302.177.311.17.317.165.325.157.332.15.339.143.346.136.353.127.361.119.367.11.373.101.38.091.385.082.391.072.397.062.401.05.405.04.409.029.413.017.415.005.362v13.238l.002.047.002.32-.004.307-.017.415-.029.413-.04.409-.05.405-.062.401-.072.396-.082.392-.091.385-.101.38-.11.373-.119.367-.127.36-.136.354-.143.346-.15.339-.157.332-.165.325-.17.318-.177.309-.183.303-.189.296-.193.288-.2.281-.204.273-.209.267-.214.26-.218.252-.222.245-.227.238-.231.232-.235.225-.239.218-.242.211-.245.204-.25.197-.253.192-.256.184-.259.177-.262.172-.266.164-.268.158-.272.152-.274.144-.277.138-.28.132-.283.125-.285.118-.288.111-.29.105-.293.098-.294.091-.298.084-.299.077-.302.07-.303.063-.306.056-.308.049-.309.041-.311.034-.313.027-.315.019-.316.011-.291.004h-16.732l-.291-.004-.316-.011-.315-.019-.313-.026-.312-.034-.309-.04-.308-.047-.307-.055-.304-.061-.302-.067-.301-.075-.299-.08-.297-.087-.295-.094-.292-.099-.291-.106-.288-.112-.286-.119-.284-.124-.281-.13-.279-.137-.277-.143-.274-.148-.272-.155-.269-.161-.267-.167-.264-.173-.261-.18-.259-.186-.255-.192-.253-.199-.249-.205-.247-.212-.243-.219-.24-.226-.237-.233-.233-.239-.229-.248-.226-.255-.221-.262-.217-.271-.213-.279-.208-.287-.204-.295-.197-.304-.193-.313-.187-.322-.18-.331-.173-.341-.167-.35-.158-.359-.151-.369-.142-.379-.132-.387-.123-.397-.112-.406-.101-.414-.089-.422-.077-.43-.064-.437-.051-.443-.037-.448-.022-.453-.006-.39v-13.57l.006-.39.022-.453.037-.448.051-.443.064-.437.077-.43.089-.422.101-.414.112-.406.123-.397.132-.387.142-.379.151-.369.158-.359.167-.35.173-.341.181-.331.186-.322.193-.313.198-.304.203-.295.208-.287.213-.279.217-.271.222-.262.225-.255.229-.247.233-.24.237-.233.24-.226.243-.219.247-.212.249-.205.253-.199.255-.192.259-.186.261-.18.264-.173.267-.167.269-.161.272-.155.274-.148.277-.143.279-.136.281-.131.284-.124.286-.119.288-.112.291-.106.292-.099.295-.094.297-.087.299-.08.3-.075.303-.067.305-.061.306-.055.308-.047.31-.041.311-.033.313-.026.315-.019.316-.011.291-.004h16.727l.291.004ZM153.995 265l-.213.003-.212.007-.213.013-.211.018-.212.022-.21.028-.21.032-.209.037-.209.042-.207.046-.206.051-.205.056-.203.059-.202.064-.201.069-.199.072-.197.077-.196.081-.193.084-.192.089-.189.093-.187.096-.185.101-.182.103-.18.108-.177.111-.175.115-.171.118-.169.121-.166.125-.163.128-.159.131-.156.134-.153.137-.149.14-.145.143-.142.146-.138.149-.134.152-.13.154-.126.156-.121.16-.117.161-.113.164-.109.167-.103.168-.099.171-.094.173-.09.175-.084.177-.079.179-.074.181-.068.183-.063.184-.058.186-.052.188-.046.189-.04.191-.034.192-.029.194-.022.195-.016.196-.01.197-.003.198v13.44l.003.198.01.197.016.196.022.195.029.194.034.192.04.191.046.189.052.188.058.186.063.184.068.183.074.181.079.179.084.177.09.175.094.173.099.171.103.168.109.167.113.164.117.161.121.16.126.156.13.154.134.152.138.149.142.146.145.143.149.14.153.137.156.134.159.131.163.128.166.125.169.121.171.118.175.115.177.111.18.108.182.103.185.101.187.096.189.093.192.089.193.084.196.081.197.077.199.072.201.069.202.064.203.059.205.056.206.051.207.046.209.042.209.037.21.032.21.028.212.022.211.018.213.013.212.007.213.003h16.68l.212-.003.211-.007.21-.013.209-.018.207-.022.206-.028.204-.032.202-.037.201-.042.2-.046.197-.051.196-.056.193-.059.192-.064.189-.069.188-.072.185-.077.182-.081.181-.084.178-.089.176-.093.173-.096.17-.101.168-.103.165-.108.162-.111.159-.115.156-.118.153-.121.15-.125.147-.128.143-.131.141-.134.136-.137.134-.14.13-.143.126-.146.122-.149.119-.152.115-.154.111-.156.108-.16.103-.161.099-.164.095-.167.09-.168.087-.171.082-.173.077-.175.073-.177.069-.179.064-.181.059-.183.054-.184.05-.186.045-.188.039-.189.035-.191.029-.192.024-.194.019-.195.014-.196.008-.197.003-.198h-.005v-13.44l-.003-.198-.008-.197-.014-.196-.019-.195-.024-.194-.029-.192-.035-.191-.039-.189-.045-.188-.05-.186-.054-.184-.059-.183-.064-.181-.069-.179-.073-.177-.077-.175-.082-.173-.087-.171-.09-.168-.095-.167-.099-.164-.103-.161-.108-.16-.111-.156-.115-.154-.119-.152-.122-.149-.126-.146-.13-.143-.134-.14-.136-.137-.141-.134-.143-.131-.147-.128-.15-.125-.153-.121-.156-.118-.159-.115-.162-.111-.165-.108-.168-.103-.17-.101-.173-.096-.176-.093-.178-.089-.181-.084-.182-.081-.185-.077-.188-.072-.189-.069-.192-.064-.193-.059-.196-.056-.197-.051-.2-.046-.201-.042-.202-.037-.204-.032-.206-.028-.207-.022-.209-.018-.21-.013-.211-.007-.212-.003h-16.675Z"/>
      </g>
      <g transform="translate(17.3925 35.2022)">
        <path fill="#e6e6e6" fill-rule="nonzero" d="M216 286.22c0 4.241-3.784 7.78-8.325 7.78h-16.68c-4.541 0-9-3.539-9-7.78v-13.44c0-4.241 4.459-7.78 9-7.78h16.675c4.541 0 8.325 3.539 8.325 7.78v13.44H216Z"/>
        <path fill="#666" d="m207.987 258.562.316.011.315.019.313.027.311.034.31.041.307.049.306.056.303.063.302.07.299.077.297.084.296.091.292.098.29.105.288.111.285.118.283.125.28.132.277.138.274.145.271.151.269.158.266.164.262.172.259.177.256.184.253.191.25.198.245.205.242.21.239.218.235.225.231.232.227.238.222.245.218.253.214.259.209.266.204.274.199.281.195.288.188.296.183.303.177.31.17.317.165.325.157.332.15.339.143.346.136.354.127.36.119.367.11.373.101.38.091.385.082.392.072.396.062.401.05.405.04.409.029.413.017.415.005.362v13.238l.002.047.002.32-.004.307-.017.415-.029.412-.04.41-.05.406-.062.4-.072.396-.081.391-.092.386-.101.38-.11.373-.119.367-.127.36-.136.354-.142.346-.151.339-.157.332-.165.325-.17.318-.177.309-.183.303-.189.296-.193.288-.2.281-.204.274-.209.266-.214.26-.218.252-.222.245-.227.239-.231.231-.235.225-.239.218-.242.21-.245.205-.25.198-.253.19-.256.185-.259.177-.262.172-.266.164-.268.158-.272.152-.274.144-.277.138-.28.132-.283.125-.285.118-.288.111-.29.105-.293.098-.294.091-.298.084-.299.077-.302.07-.303.063-.306.056-.308.049-.309.041-.311.034-.313.027-.315.019-.316.011-.291.004h-16.732l-.291-.004-.316-.011-.315-.019-.313-.026-.312-.034-.309-.04-.308-.047-.307-.055-.304-.061-.303-.067-.3-.075-.299-.08-.297-.087-.295-.094-.292-.099-.291-.106-.288-.112-.286-.119-.284-.124-.281-.13-.279-.137-.277-.143-.274-.148-.272-.155-.269-.161-.267-.167-.264-.173-.261-.18-.259-.186-.255-.192-.253-.199-.249-.205-.247-.212-.243-.219-.24-.226-.237-.233-.233-.239-.229-.248-.226-.255-.221-.262-.217-.271-.213-.279-.208-.287-.204-.295-.197-.304-.193-.313-.186-.322-.181-.331-.173-.341-.167-.35-.158-.359-.151-.369-.142-.379-.132-.387-.123-.397-.112-.406-.101-.414-.089-.422-.077-.43-.064-.437-.051-.443-.037-.448-.022-.453-.006-.391v-13.568l.006-.391.022-.453.037-.448.051-.443.064-.437.077-.43.089-.422.101-.414.112-.406.123-.397.132-.387.142-.379.151-.369.158-.359.167-.35.173-.341.181-.331.186-.322.193-.313.198-.304.203-.295.208-.287.213-.279.217-.271.222-.262.225-.255.229-.247.233-.24.237-.233.24-.226.243-.219.247-.212.249-.205.253-.199.255-.192.259-.186.261-.18.264-.173.267-.167.269-.161.272-.155.274-.148.277-.143.279-.136.281-.131.284-.124.286-.119.288-.112.291-.106.292-.099.295-.094.297-.087.299-.08.3-.075.303-.067.305-.061.306-.055.308-.047.31-.041.311-.033.313-.026.315-.019.316-.011.291-.004h16.727l.291.004ZM190.995 265l-.213.003-.212.007-.213.013-.211.018-.212.022-.21.028-.21.032-.209.037-.209.042-.207.046-.206.051-.205.056-.203.059-.202.064-.201.069-.199.072-.197.077-.196.081-.193.084-.192.089-.189.093-.187.096-.185.101-.182.103-.18.108-.177.111-.175.115-.171.118-.169.121-.166.125-.163.128-.159.131-.156.134-.153.137-.149.14-.145.143-.142.146-.138.149-.134.152-.13.154-.126.156-.121.16-.117.161-.113.164-.109.167-.103.168-.099.171-.094.173-.09.175-.084.177-.079.179-.074.181-.068.183-.063.184-.058.186-.052.188-.046.189-.04.191-.034.192-.029.194-.022.195-.016.196-.01.197-.003.198v13.44l.003.198.01.197.016.196.022.195.029.194.034.192.04.191.046.189.052.188.058.186.063.184.068.183.074.181.079.179.084.177.09.175.094.173.099.171.103.168.109.167.113.164.117.161.121.16.126.156.13.154.134.152.138.149.142.146.145.143.149.14.153.137.156.134.159.131.163.128.166.125.169.121.171.118.175.115.177.111.18.108.182.103.185.101.187.096.189.093.192.089.193.084.196.081.197.077.199.072.201.069.202.064.203.059.205.056.206.051.207.046.209.042.209.037.21.032.21.028.212.022.211.018.213.013.212.007.213.003h16.68l.212-.003.211-.007.21-.013.209-.018.207-.022.206-.028.204-.032.202-.037.201-.042.2-.046.197-.051.196-.056.193-.059.192-.064.189-.069.188-.072.185-.077.182-.081.181-.084.178-.089.176-.093.173-.096.17-.101.168-.103.165-.108.162-.111.159-.115.156-.118.153-.121.15-.125.147-.128.143-.131.141-.134.136-.137.134-.14.13-.143.126-.146.122-.149.119-.152.115-.154.111-.156.108-.16.103-.161.099-.164.095-.167.09-.168.087-.171.082-.173.077-.175.073-.177.069-.179.064-.181.059-.183.054-.184.05-.186.045-.188.039-.189.035-.191.029-.192.024-.194.019-.195.014-.196.008-.197.003-.198h-.005v-13.44l-.003-.198-.008-.197-.014-.196-.019-.195-.024-.194-.029-.192-.035-.191-.039-.189-.045-.188-.05-.186-.054-.184-.059-.183-.064-.181-.069-.179-.073-.177-.077-.175-.082-.173-.087-.171-.09-.168-.095-.167-.099-.164-.103-.161-.108-.16-.111-.156-.115-.154-.119-.152-.122-.149-.126-.146-.13-.143-.134-.14-.136-.137-.141-.134-.143-.131-.147-.128-.15-.125-.153-.121-.156-.118-.159-.115-.162-.111-.165-.108-.168-.103-.17-.101-.173-.096-.176-.093-.178-.089-.181-.084-.182-.081-.185-.077-.188-.072-.189-.069-.192-.064-.193-.059-.196-.056-.197-.051-.2-.046-.201-.042-.202-.037-.204-.032-.206-.028-.207-.022-.209-.018-.21-.013-.211-.007-.212-.003h-16.675Z"/>
      </g>
    </g>
  </g>
</svg>