<?xml version="1.0" encoding="UTF-8" standalone="no"?>
<!-- Created with Inkscape (http://www.inkscape.org/) -->
<svg
   xmlns:svg="http://www.w3.org/2000/svg"
   xmlns="http://www.w3.org/2000/svg"
   version="1.0"
   width="350"
   height="266"
   id="svg2211">
  <defs
     id="defs2214" />
  <path
     d="M 25,250 L 100,25 L 325,250 L 25,250 z M 100,25 L 135,140 M 325,250 L 135,140 M 25,250 L 135,140 M 49.094265,225.85845 C 55.991528,232.52537 59.464924,240.733 59.448585,250.32571 M 36.924948,212.69405 C 43.409078,214.7068 48.488449,217.83247 53.207411,222.71371 M 39.418208,207.40294 C 46.319032,209.68451 51.726577,213.01888 56.863989,218.16026 M 110.03885,59.091829 C 102.79484,61.160184 96.05435,60.955263 88.949357,58.450686 M 128.01742,52.889629 C 123.07508,57.731326 117.81568,60.776038 111.15585,62.650937 M 131.63424,56.560967 C 126.1331,61.98671 120.2834,65.418428 112.86321,67.572956 M 295.49999,232.50001 C 297.07058,229.88362 298.68283,227.83603 300.85778,225.6955 M 284.99941,249.50001 C 284.95735,242.20056 286.60119,235.97585 290.24172,229.6489 M 280.5,249.5 C 280.51793,241.37468 282.37115,234.46168 286.41998,227.41695"
     style="fill:none;fill-rule:evenodd;stroke:#000000;stroke-width:2;stroke-linecap:butt;stroke-linejoin:miter;stroke-miterlimit:4;stroke-opacity:1"
     id="path2220" />
  <text
     x="4.84375"
     y="251"
     style="font-size:20px;font-style:normal;font-weight:bold;fill:#000000;fill-opacity:1;stroke:none;stroke-width:1px;stroke-linecap:butt;stroke-linejoin:miter;stroke-opacity:1;font-family:Times New Roman"
     id="text11940"
     xml:space="preserve"><tspan
       x="4.84375"
       y="251"
       id="tspan11942">A</tspan></text>
  <text
     x="89.208984"
     y="15.697266"
     style="font-size:20px;font-style:normal;font-weight:bold;fill:#000000;fill-opacity:1;stroke:none;stroke-width:1px;stroke-linecap:butt;stroke-linejoin:miter;stroke-opacity:1;font-family:Times New Roman"
     id="text11944"
     xml:space="preserve"><tspan
       x="89.208984"
       y="15.697266"
       id="tspan11946">C</tspan></text>
  <text
     x="329.58008"
     y="251"
     style="font-size:20px;font-style:normal;font-weight:bold;fill:#000000;fill-opacity:1;stroke:none;stroke-width:1px;stroke-linecap:butt;stroke-linejoin:miter;stroke-opacity:1;font-family:Times New Roman"
     id="text11948"
     xml:space="preserve"><tspan
       x="329.58008"
       y="251"
       id="tspan11950">B</tspan></text>
  <text
     x="109.21875"
     y="145.69727"
     style="font-size:20px;font-style:normal;font-weight:bold;fill:#000000;fill-opacity:1;stroke:none;stroke-width:1px;stroke-linecap:butt;stroke-linejoin:miter;stroke-opacity:1;font-family:Times New Roman"
     id="text11952"
     xml:space="preserve"><tspan
       x="109.21875"
       y="145.69727"
       id="tspan11954">O</tspan></text>
</svg>
