<svg version="1.1" id="Layer_1" xmlns="http://www.w3.org/2000/svg" xmlns:xlink="http://www.w3.org/1999/xlink" x="0px" y="0px"
	 width="100%" viewBox="0 0 1024 1024" enable-background="new 0 0 1024 1024" xml:space="preserve">
<path fill="#778B3E" opacity="1.000000" stroke="none" 
	d="
M579.987244,647.008179 
	C601.239014,633.298462 615.533325,614.579224 623.636047,591.100952 
	C624.656433,588.144043 626.595398,586.457275 629.063049,584.932434 
	C666.142151,562.019653 691.165894,529.529907 705.080200,488.430817 
	C710.494019,472.439819 713.194275,455.858765 713.840088,438.959747 
	C713.917297,436.939758 713.224915,434.660126 715.708069,431.965118 
	C717.921204,439.457947 720.219727,446.132690 721.858704,452.965576 
	C733.795471,502.731079 730.405762,551.403931 708.660828,597.851501 
	C677.139343,665.181885 624.981201,707.817383 551.642944,722.136780 
	C493.222351,733.543457 439.998627,720.327820 394.109619,681.916748 
	C360.369324,653.674622 340.674561,617.020691 335.689453,573.279541 
	C329.355164,517.700439 345.272064,469.101593 385.077179,429.325012 
	C409.358917,405.060669 439.003601,391.506439 473.462860,388.526855 
	C512.582825,385.144257 548.026733,394.689880 579.949097,417.478546 
	C580.896912,418.155121 581.834167,418.857056 582.700134,419.632324 
	C583.032776,419.930176 583.151855,420.466522 583.589355,421.331299 
	C583.229065,421.535339 582.825439,421.942688 582.384644,421.987885 
	C560.563049,424.224731 546.059814,437.024933 534.799866,454.684021 
	C528.980713,463.810150 523.836853,473.339935 517.519714,482.176483 
	C500.473785,506.020508 477.571808,519.784546 448.477814,523.347839 
	C432.440308,525.312073 416.914490,528.722595 404.432373,540.098938 
	C404.239258,540.274963 403.804504,540.185852 402.718842,540.302551 
	C402.026093,519.831970 407.639038,501.300842 418.428619,484.226807 
	C429.246826,467.107483 444.200714,454.328125 462.165070,443.990753 
	C459.671326,442.461182 457.946381,443.462982 456.221497,444.172974 
	C412.081909,462.341888 385.529877,504.685730 389.450043,551.993164 
	C392.457306,588.283691 410.338501,616.464661 439.411224,637.640808 
	C465.681061,656.775452 495.434906,665.230530 527.777405,663.514709 
	C546.300598,662.532043 563.752686,657.008789 579.987244,647.008179 
z"/>
<path fill="#7A614D" opacity="1.000000" stroke="none" 
	d="
M304.655334,457.824951 
	C316.691406,384.574463 354.452271,330.157562 420.742523,296.808777 
	C452.883636,280.639465 487.459869,273.854126 523.399475,275.903473 
	C576.323853,278.921295 622.573669,298.105133 660.218323,335.864655 
	C690.390198,366.128540 702.892395,403.355286 699.016052,445.656067 
	C695.274780,486.483856 677.089966,520.622192 647.956543,549.151062 
	C642.353455,554.637878 636.474365,559.795776 630.210571,564.512695 
	C629.177551,565.290588 628.329163,566.471008 626.490845,566.249695 
	C625.323425,563.937561 627.276428,562.254639 628.106934,560.546082 
	C637.039978,542.168945 643.724548,523.061829 647.137939,502.876953 
	C652.040161,473.888000 650.600220,445.486389 638.866516,418.133667 
	C624.253540,384.069061 598.219788,363.061188 563.005493,353.306335 
	C525.051453,342.792511 487.351837,346.522888 450.307495,357.927979 
	C413.423157,369.283875 381.169617,388.449585 356.235413,418.459351 
	C333.058044,446.354645 319.600616,478.469879 316.071442,514.675537 
	C314.888397,526.812378 314.639954,538.918823 316.069611,551.042114 
	C316.165192,551.852478 316.192413,552.701172 314.275635,553.944824 
	C304.207886,522.439453 299.650574,490.891724 304.655334,457.824951 
z"/>
<path fill="#7A614D" opacity="1.000000" stroke="none" 
	d="
M469.382019,539.313477 
	C491.085815,523.826111 514.870728,521.959473 539.277649,528.540771 
	C571.936401,537.347107 593.607666,558.927551 606.242798,590.005188 
	C607.463074,593.006592 607.270386,595.207397 605.022827,597.663086 
	C586.864380,617.503052 565.286865,631.661804 538.557922,636.612488 
	C513.177917,641.313354 489.342987,637.384521 468.864410,620.664490 
	C440.989838,597.905823 441.243683,562.227600 469.382019,539.313477 
z"/>
</svg>